<svg width="65" height="65" viewBox="0 0 65 65" fill="none" xmlns="http://www.w3.org/2000/svg">
<path d="M21.3281 0C9.56719 0 0 9.56719 0 21.3281C0 33.0891 9.56719 42.6562 21.3281 42.6562C26.8633 42.6562 31.8967 40.5194 35.6911 37.05C35.7358 37.1292 35.7764 37.2125 35.8455 37.2816L40.2147 41.6508C39.7502 42.4221 39.5586 43.3272 39.6706 44.2206C39.7826 45.114 40.1917 45.9438 40.8322 46.5766L58.0673 63.8117C58.8331 64.5775 59.8528 65 60.9375 65C62.0222 65 63.0419 64.5775 63.8097 63.8097C64.5775 63.0419 65 62.0222 65 60.9375C65 59.8528 64.5775 58.8331 63.8097 58.0653L46.5745 40.8302C45.2867 39.5423 43.2047 39.3494 41.6589 40.2228L37.2816 35.8455C37.2125 35.7764 37.1312 35.7358 37.05 35.6911C40.6533 31.7756 42.6542 26.6493 42.6562 21.3281C42.6562 9.56719 33.0891 0 21.3281 0ZM45.1384 42.2663L62.3736 59.5014C62.7575 59.8853 62.9688 60.3952 62.9688 60.9375C62.9688 61.4798 62.7575 61.9897 62.3736 62.3736C61.9864 62.7424 61.4722 62.9481 60.9375 62.9481C60.4028 62.9481 59.8886 62.7424 59.5014 62.3736L42.2663 45.1384C42.077 44.9502 41.9268 44.7265 41.8243 44.48C41.7218 44.2336 41.669 43.9693 41.669 43.7023C41.669 43.4354 41.7218 43.1711 41.8243 42.9247C41.9268 42.6782 42.077 42.4545 42.2663 42.2663C42.4545 42.077 42.6782 41.9268 42.9247 41.8243C43.1711 41.7218 43.4354 41.669 43.7023 41.669C43.9693 41.669 44.2336 41.7218 44.48 41.8243C44.7265 41.9268 44.9502 42.077 45.1384 42.2663ZM21.3281 40.625C10.6884 40.625 2.03125 31.9678 2.03125 21.3281C2.03125 10.6884 10.6884 2.03125 21.3281 2.03125C31.9678 2.03125 40.625 10.6884 40.625 21.3281C40.625 31.9678 31.9678 40.625 21.3281 40.625Z" fill="#BF2424"/>
<path d="M21.3281 6.09375C12.9269 6.09375 6.09375 12.9269 6.09375 21.3281C6.09375 29.7294 12.9269 36.5625 21.3281 36.5625C29.7294 36.5625 36.5625 29.7294 36.5625 21.3281C36.5625 12.9269 29.7294 6.09375 21.3281 6.09375ZM21.3281 34.5312C14.0481 34.5312 8.125 28.6081 8.125 21.3281C8.125 14.0481 14.0481 8.125 21.3281 8.125C28.6081 8.125 34.5312 14.0481 34.5312 21.3281C34.5312 28.6081 28.6081 34.5312 21.3281 34.5312Z" fill="#BF2424"/>
</svg>
