<svg width="1440" height="177" viewBox="0 0 1440 177" fill="none" xmlns="http://www.w3.org/2000/svg">
<rect width="1440" height="177" fill="url(#paint0_linear)"/>
<path d="M441.888 93.6181H433.438L431.826 97.5181H427.51L435.622 79.3181H439.782L447.92 97.5181H443.5L441.888 93.6181ZM440.562 90.4201L437.676 83.4521L434.79 90.4201H440.562ZM449.808 79.3181H458.076C460.052 79.3181 461.794 79.6994 463.302 80.4621C464.827 81.2074 466.006 82.2647 466.838 83.6341C467.687 85.0034 468.112 86.5981 468.112 88.4181C468.112 90.2381 467.687 91.8327 466.838 93.2021C466.006 94.5714 464.827 95.6374 463.302 96.4001C461.794 97.1454 460.052 97.5181 458.076 97.5181H449.808V79.3181ZM457.868 94.0601C459.688 94.0601 461.135 93.5574 462.21 92.5521C463.302 91.5294 463.848 90.1514 463.848 88.4181C463.848 86.6847 463.302 85.3154 462.21 84.3101C461.135 83.2874 459.688 82.7761 457.868 82.7761H454.02V94.0601H457.868ZM487.85 97.5181L487.824 86.5981L482.468 95.5941H480.57L475.24 86.8321V97.5181H471.288V79.3181H474.772L481.584 90.6281L488.292 79.3181H491.75L491.802 97.5181H487.85ZM496.12 79.3181H500.332V97.5181H496.12V79.3181ZM510.632 97.8301C509.193 97.8301 507.798 97.6394 506.446 97.2581C505.111 96.8594 504.036 96.3481 503.222 95.7241L504.652 92.5521C505.432 93.1241 506.359 93.5834 507.434 93.9301C508.508 94.2767 509.583 94.4501 510.658 94.4501C511.854 94.4501 512.738 94.2767 513.31 93.9301C513.882 93.5661 514.168 93.0894 514.168 92.5001C514.168 92.0667 513.994 91.7114 513.648 91.4341C513.318 91.1394 512.885 90.9054 512.348 90.7321C511.828 90.5587 511.117 90.3681 510.216 90.1601C508.829 89.8307 507.694 89.5014 506.81 89.1721C505.926 88.8427 505.163 88.3141 504.522 87.5861C503.898 86.8581 503.586 85.8874 503.586 84.6741C503.586 83.6167 503.872 82.6634 504.444 81.8141C505.016 80.9474 505.874 80.2627 507.018 79.7601C508.179 79.2574 509.592 79.0061 511.256 79.0061C512.417 79.0061 513.552 79.1447 514.662 79.4221C515.771 79.6994 516.742 80.0981 517.574 80.6181L516.274 83.8161C514.592 82.8627 512.911 82.3861 511.23 82.3861C510.051 82.3861 509.176 82.5767 508.604 82.9581C508.049 83.3394 507.772 83.8421 507.772 84.4661C507.772 85.0901 508.092 85.5581 508.734 85.8701C509.392 86.1647 510.389 86.4594 511.724 86.7541C513.11 87.0834 514.246 87.4127 515.13 87.7421C516.014 88.0714 516.768 88.5914 517.392 89.3021C518.033 90.0127 518.354 90.9747 518.354 92.1881C518.354 93.2281 518.059 94.1814 517.47 95.0481C516.898 95.8974 516.031 96.5734 514.87 97.0761C513.708 97.5787 512.296 97.8301 510.632 97.8301ZM527.212 97.8301C525.773 97.8301 524.378 97.6394 523.026 97.2581C521.691 96.8594 520.616 96.3481 519.802 95.7241L521.232 92.5521C522.012 93.1241 522.939 93.5834 524.014 93.9301C525.088 94.2767 526.163 94.4501 527.238 94.4501C528.434 94.4501 529.318 94.2767 529.89 93.9301C530.462 93.5661 530.748 93.0894 530.748 92.5001C530.748 92.0667 530.574 91.7114 530.228 91.4341C529.898 91.1394 529.465 90.9054 528.928 90.7321C528.408 90.5587 527.697 90.3681 526.796 90.1601C525.409 89.8307 524.274 89.5014 523.39 89.1721C522.506 88.8427 521.743 88.3141 521.102 87.5861C520.478 86.8581 520.166 85.8874 520.166 84.6741C520.166 83.6167 520.452 82.6634 521.024 81.8141C521.596 80.9474 522.454 80.2627 523.598 79.7601C524.759 79.2574 526.172 79.0061 527.836 79.0061C528.997 79.0061 530.132 79.1447 531.242 79.4221C532.351 79.6994 533.322 80.0981 534.154 80.6181L532.854 83.8161C531.172 82.8627 529.491 82.3861 527.81 82.3861C526.631 82.3861 525.756 82.5767 525.184 82.9581C524.629 83.3394 524.352 83.8421 524.352 84.4661C524.352 85.0901 524.672 85.5581 525.314 85.8701C525.972 86.1647 526.969 86.4594 528.304 86.7541C529.69 87.0834 530.826 87.4127 531.71 87.7421C532.594 88.0714 533.348 88.5914 533.972 89.3021C534.613 90.0127 534.934 90.9747 534.934 92.1881C534.934 93.2281 534.639 94.1814 534.05 95.0481C533.478 95.8974 532.611 96.5734 531.45 97.0761C530.288 97.5787 528.876 97.8301 527.212 97.8301ZM537.812 79.3181H542.024V97.5181H537.812V79.3181ZM555.157 97.8301C553.268 97.8301 551.56 97.4227 550.035 96.6081C548.527 95.7934 547.34 94.6754 546.473 93.2541C545.624 91.8154 545.199 90.2034 545.199 88.4181C545.199 86.6327 545.624 85.0294 546.473 83.6081C547.34 82.1694 548.527 81.0427 550.035 80.2281C551.56 79.4134 553.268 79.0061 555.157 79.0061C557.046 79.0061 558.745 79.4134 560.253 80.2281C561.761 81.0427 562.948 82.1694 563.815 83.6081C564.682 85.0294 565.115 86.6327 565.115 88.4181C565.115 90.2034 564.682 91.8154 563.815 93.2541C562.948 94.6754 561.761 95.7934 560.253 96.6081C558.745 97.4227 557.046 97.8301 555.157 97.8301ZM555.157 94.2421C556.232 94.2421 557.202 93.9994 558.069 93.5141C558.936 93.0114 559.612 92.3181 560.097 91.4341C560.6 90.5501 560.851 89.5447 560.851 88.4181C560.851 87.2914 560.6 86.2861 560.097 85.4021C559.612 84.5181 558.936 83.8334 558.069 83.3481C557.202 82.8454 556.232 82.5941 555.157 82.5941C554.082 82.5941 553.112 82.8454 552.245 83.3481C551.378 83.8334 550.694 84.5181 550.191 85.4021C549.706 86.2861 549.463 87.2914 549.463 88.4181C549.463 89.5447 549.706 90.5501 550.191 91.4341C550.694 92.3181 551.378 93.0114 552.245 93.5141C553.112 93.9994 554.082 94.2421 555.157 94.2421ZM584.973 79.3181V97.5181H581.515L572.441 86.4681V97.5181H568.281V79.3181H571.765L580.813 90.3681V79.3181H584.973ZM605.456 97.8301C603.567 97.8301 601.859 97.4227 600.334 96.6081C598.826 95.7934 597.639 94.6754 596.772 93.2541C595.923 91.8154 595.498 90.2034 595.498 88.4181C595.498 86.6327 595.923 85.0294 596.772 83.6081C597.639 82.1694 598.826 81.0427 600.334 80.2281C601.859 79.4134 603.567 79.0061 605.456 79.0061C607.345 79.0061 609.044 79.4134 610.552 80.2281C612.06 81.0427 613.247 82.1694 614.114 83.6081C614.981 85.0294 615.414 86.6327 615.414 88.4181C615.414 90.2034 614.981 91.8154 614.114 93.2541C613.247 94.6754 612.06 95.7934 610.552 96.6081C609.044 97.4227 607.345 97.8301 605.456 97.8301ZM605.456 94.2421C606.531 94.2421 607.501 93.9994 608.368 93.5141C609.235 93.0114 609.911 92.3181 610.396 91.4341C610.899 90.5501 611.15 89.5447 611.15 88.4181C611.15 87.2914 610.899 86.2861 610.396 85.4021C609.911 84.5181 609.235 83.8334 608.368 83.3481C607.501 82.8454 606.531 82.5941 605.456 82.5941C604.381 82.5941 603.411 82.8454 602.544 83.3481C601.677 83.8334 600.993 84.5181 600.49 85.4021C600.005 86.2861 599.762 87.2914 599.762 88.4181C599.762 89.5447 600.005 90.5501 600.49 91.4341C600.993 92.3181 601.677 93.0114 602.544 93.5141C603.411 93.9994 604.381 94.2421 605.456 94.2421ZM626.457 79.3181C628.069 79.3181 629.465 79.5867 630.643 80.1241C631.839 80.6614 632.758 81.4241 633.399 82.4121C634.041 83.4001 634.361 84.5701 634.361 85.9221C634.361 87.2567 634.041 88.4267 633.399 89.4321C632.758 90.4201 631.839 91.1827 630.643 91.7201C629.465 92.2401 628.069 92.5001 626.457 92.5001H622.791V97.5181H618.579V79.3181H626.457ZM626.223 89.0681C627.489 89.0681 628.451 88.7994 629.109 88.2621C629.768 87.7074 630.097 86.9274 630.097 85.9221C630.097 84.8994 629.768 84.1194 629.109 83.5821C628.451 83.0274 627.489 82.7501 626.223 82.7501H622.791V89.0681H626.223ZM651.46 94.1381V97.5181H637.368V79.3181H651.122V82.6981H641.554V86.6501H650.004V89.9261H641.554V94.1381H651.46ZM671.504 79.3181V97.5181H668.046L658.972 86.4681V97.5181H654.812V79.3181H658.296L667.344 90.3681V79.3181H671.504ZM687.385 82.6981V87.5081H695.809V90.8881H687.385V97.5181H683.173V79.3181H696.927V82.6981H687.385ZM708.415 97.8301C706.526 97.8301 704.818 97.4227 703.293 96.6081C701.785 95.7934 700.598 94.6754 699.731 93.2541C698.882 91.8154 698.457 90.2034 698.457 88.4181C698.457 86.6327 698.882 85.0294 699.731 83.6081C700.598 82.1694 701.785 81.0427 703.293 80.2281C704.818 79.4134 706.526 79.0061 708.415 79.0061C710.304 79.0061 712.003 79.4134 713.511 80.2281C715.019 81.0427 716.206 82.1694 717.073 83.6081C717.94 85.0294 718.373 86.6327 718.373 88.4181C718.373 90.2034 717.94 91.8154 717.073 93.2541C716.206 94.6754 715.019 95.7934 713.511 96.6081C712.003 97.4227 710.304 97.8301 708.415 97.8301ZM708.415 94.2421C709.49 94.2421 710.46 93.9994 711.327 93.5141C712.194 93.0114 712.87 92.3181 713.355 91.4341C713.858 90.5501 714.109 89.5447 714.109 88.4181C714.109 87.2914 713.858 86.2861 713.355 85.4021C712.87 84.5181 712.194 83.8334 711.327 83.3481C710.46 82.8454 709.49 82.5941 708.415 82.5941C707.34 82.5941 706.37 82.8454 705.503 83.3481C704.636 83.8334 703.952 84.5181 703.449 85.4021C702.964 86.2861 702.721 87.2914 702.721 88.4181C702.721 89.5447 702.964 90.5501 703.449 91.4341C703.952 92.3181 704.636 93.0114 705.503 93.5141C706.37 93.9994 707.34 94.2421 708.415 94.2421ZM733.134 97.5181L729.624 92.4481H729.416H725.75V97.5181H721.538V79.3181H729.416C731.028 79.3181 732.424 79.5867 733.602 80.1241C734.798 80.6614 735.717 81.4241 736.358 82.4121C737 83.4001 737.32 84.5701 737.32 85.9221C737.32 87.2741 736.991 88.4441 736.332 89.4321C735.691 90.4027 734.772 91.1481 733.576 91.6681L737.658 97.5181H733.134ZM733.056 85.9221C733.056 84.8994 732.727 84.1194 732.068 83.5821C731.41 83.0274 730.448 82.7501 729.182 82.7501H725.75V89.0941H729.182C730.448 89.0941 731.41 88.8167 732.068 88.2621C732.727 87.7074 733.056 86.9274 733.056 85.9221ZM760.475 94.0861V97.5181H746.721V94.7881L753.741 88.1581C754.486 87.4474 754.989 86.8407 755.249 86.3381C755.509 85.8181 755.639 85.3067 755.639 84.8041C755.639 84.0761 755.387 83.5214 754.885 83.1401C754.399 82.7414 753.68 82.5421 752.727 82.5421C751.929 82.5421 751.21 82.6981 750.569 83.0101C749.927 83.3047 749.39 83.7554 748.957 84.3621L745.889 82.3861C746.599 81.3287 747.579 80.5054 748.827 79.9161C750.075 79.3094 751.505 79.0061 753.117 79.0061C754.469 79.0061 755.647 79.2314 756.653 79.6821C757.675 80.1154 758.464 80.7394 759.019 81.5541C759.591 82.3514 759.877 83.2961 759.877 84.3881C759.877 85.3761 759.669 86.3034 759.253 87.1701C758.837 88.0367 758.031 89.0247 756.835 90.1341L752.649 94.0861H760.475ZM769.962 97.8301C768.454 97.8301 767.111 97.4574 765.932 96.7121C764.753 95.9667 763.826 94.8921 763.15 93.4881C762.491 92.0667 762.162 90.3767 762.162 88.4181C762.162 86.4594 762.491 84.7781 763.15 83.3741C763.826 81.9527 764.753 80.8694 765.932 80.1241C767.111 79.3787 768.454 79.0061 769.962 79.0061C771.47 79.0061 772.813 79.3787 773.992 80.1241C775.171 80.8694 776.089 81.9527 776.748 83.3741C777.424 84.7781 777.762 86.4594 777.762 88.4181C777.762 90.3767 777.424 92.0667 776.748 93.4881C776.089 94.8921 775.171 95.9667 773.992 96.7121C772.813 97.4574 771.47 97.8301 769.962 97.8301ZM769.962 94.2681C771.071 94.2681 771.938 93.7914 772.562 92.8381C773.203 91.8847 773.524 90.4114 773.524 88.4181C773.524 86.4247 773.203 84.9514 772.562 83.9981C771.938 83.0447 771.071 82.5681 769.962 82.5681C768.87 82.5681 768.003 83.0447 767.362 83.9981C766.738 84.9514 766.426 86.4247 766.426 88.4181C766.426 90.4114 766.738 91.8847 767.362 92.8381C768.003 93.7914 768.87 94.2681 769.962 94.2681ZM786.676 79.3181V97.5181H782.464V82.6981H778.824V79.3181H786.676ZM796.234 79.0061C798.782 79.0061 800.775 79.7861 802.214 81.3461C803.652 82.8887 804.372 85.1161 804.372 88.0281C804.372 90.0907 803.982 91.8587 803.202 93.3321C802.439 94.8054 801.356 95.9234 799.952 96.6861C798.548 97.4487 796.927 97.8301 795.09 97.8301C794.119 97.8301 793.192 97.7261 792.308 97.5181C791.424 97.2927 790.67 96.9807 790.046 96.5821L791.606 93.4881C792.49 94.0947 793.625 94.3981 795.012 94.3981C796.554 94.3981 797.776 93.9474 798.678 93.0461C799.579 92.1274 800.064 90.8101 800.134 89.0941C799.042 90.1861 797.534 90.7321 795.61 90.7321C794.448 90.7321 793.391 90.4981 792.438 90.0301C791.484 89.5621 790.73 88.9034 790.176 88.0541C789.621 87.1874 789.344 86.1907 789.344 85.0641C789.344 83.8507 789.647 82.7847 790.254 81.8661C790.86 80.9474 791.684 80.2454 792.724 79.7601C793.781 79.2574 794.951 79.0061 796.234 79.0061ZM796.546 87.5861C797.464 87.5861 798.21 87.3347 798.782 86.8321C799.371 86.3121 799.666 85.6534 799.666 84.8561C799.666 84.0587 799.38 83.4087 798.808 82.9061C798.253 82.4034 797.482 82.1521 796.494 82.1521C795.592 82.1521 794.856 82.3947 794.284 82.8801C793.729 83.3654 793.452 84.0241 793.452 84.8561C793.452 85.6881 793.729 86.3554 794.284 86.8581C794.856 87.3434 795.61 87.5861 796.546 87.5861Z" fill="white"/>
<path d="M887.629 89.2157H883.429L882.601 91.1597H880.993L884.773 82.7597H886.309L890.101 91.1597H888.469L887.629 89.2157ZM887.113 87.9917L885.529 84.3197L883.957 87.9917H887.113ZM895.363 82.7597C896.091 82.7597 896.723 82.8797 897.259 83.1197C897.803 83.3597 898.219 83.7037 898.507 84.1517C898.795 84.5997 898.939 85.1317 898.939 85.7477C898.939 86.3557 898.795 86.8877 898.507 87.3437C898.219 87.7917 897.803 88.1357 897.259 88.3757C896.723 88.6157 896.091 88.7357 895.363 88.7357H893.467V91.1597H891.907V82.7597H895.363ZM895.291 87.4157C895.971 87.4157 896.487 87.2717 896.839 86.9837C897.191 86.6957 897.367 86.2837 897.367 85.7477C897.367 85.2117 897.191 84.7997 896.839 84.5117C896.487 84.2237 895.971 84.0797 895.291 84.0797H893.467V87.4157H895.291ZM904.692 82.7597C905.42 82.7597 906.052 82.8797 906.588 83.1197C907.132 83.3597 907.548 83.7037 907.836 84.1517C908.124 84.5997 908.268 85.1317 908.268 85.7477C908.268 86.3557 908.124 86.8877 907.836 87.3437C907.548 87.7917 907.132 88.1357 906.588 88.3757C906.052 88.6157 905.42 88.7357 904.692 88.7357H902.796V91.1597H901.236V82.7597H904.692ZM904.62 87.4157C905.3 87.4157 905.816 87.2717 906.168 86.9837C906.52 86.6957 906.696 86.2837 906.696 85.7477C906.696 85.2117 906.52 84.7997 906.168 84.5117C905.816 84.2237 905.3 84.0797 904.62 84.0797H902.796V87.4157H904.62ZM910.564 82.7597H912.124V89.8397H916.516V91.1597H910.564V82.7597ZM921.231 88.1957V91.1597H919.671V88.2197L916.371 82.7597H918.039L920.499 86.8517L922.983 82.7597H924.519L921.231 88.1957ZM937.798 82.7597V91.1597H936.514L931.882 85.4717V91.1597H930.334V82.7597H931.618L936.25 88.4477V82.7597H937.798ZM944.711 91.2797C943.855 91.2797 943.083 91.0957 942.395 90.7277C941.707 90.3517 941.167 89.8357 940.775 89.1797C940.383 88.5157 940.187 87.7757 940.187 86.9597C940.187 86.1437 940.383 85.4077 940.775 84.7517C941.167 84.0877 941.707 83.5717 942.395 83.2037C943.083 82.8277 943.855 82.6397 944.711 82.6397C945.567 82.6397 946.339 82.8277 947.027 83.2037C947.715 83.5717 948.255 84.0837 948.647 84.7397C949.039 85.3957 949.235 86.1357 949.235 86.9597C949.235 87.7837 949.039 88.5237 948.647 89.1797C948.255 89.8357 947.715 90.3517 947.027 90.7277C946.339 91.0957 945.567 91.2797 944.711 91.2797ZM944.711 89.9117C945.271 89.9117 945.775 89.7877 946.223 89.5397C946.671 89.2837 947.023 88.9317 947.279 88.4837C947.535 88.0277 947.663 87.5197 947.663 86.9597C947.663 86.3997 947.535 85.8957 947.279 85.4477C947.023 84.9917 946.671 84.6397 946.223 84.3917C945.775 84.1357 945.271 84.0077 944.711 84.0077C944.151 84.0077 943.647 84.1357 943.199 84.3917C942.751 84.6397 942.399 84.9917 942.143 85.4477C941.887 85.8957 941.759 86.3997 941.759 86.9597C941.759 87.5197 941.887 88.0277 942.143 88.4837C942.399 88.9317 942.751 89.2837 943.199 89.5397C943.647 89.7877 944.151 89.9117 944.711 89.9117ZM963.634 82.7597L960.85 91.1597H959.194L957.118 84.9437L955.006 91.1597H953.338L950.554 82.7597H952.174L954.262 89.1437L956.434 82.7597H957.874L959.998 89.1797L962.146 82.7597H963.634Z" fill="white"/>
<rect x="856" y="70.6597" width="131.18" height="34" rx="17" stroke="white"/>
<defs>
<linearGradient id="paint0_linear" x1="40.3359" y1="171.717" x2="1394.38" y2="171.717" gradientUnits="userSpaceOnUse">
<stop stop-color="#B10F56"/>
<stop offset="1" stop-color="#D00846"/>
</linearGradient>
</defs>
</svg>
