<svg width="53" height="53" viewBox="0 0 53 53" fill="none" xmlns="http://www.w3.org/2000/svg">
<path d="M15.2387 0.880481C11.8587 0.0224814 8.31616 0.386481 5.54066 1.93998C2.71316 3.51948 0.730663 6.32098 0.633163 10.0682C0.483663 15.9247 1.83891 23.7832 7.22091 33.0067C12.5347 42.1165 18.4009 47.5765 23.2694 50.82C26.3439 52.8707 29.7402 52.926 32.6424 51.5902C35.5024 50.274 37.8229 47.6447 39.0287 44.385C39.3288 43.5742 39.4493 42.708 39.382 41.8461C39.3146 40.9843 39.061 40.1473 38.6387 39.393L35.5382 33.8582C34.5846 32.1564 33.0504 30.8544 31.2161 30.1902C29.3818 29.5261 27.3698 29.5441 25.5477 30.241L23.3832 31.0697C22.3334 31.4695 21.3682 31.2842 20.8222 30.7447C18.9859 28.941 17.6729 26.4937 17.0782 23.8547C16.8897 23.0227 17.2732 22.0412 18.1897 21.349L20.1429 19.8735C21.722 18.6819 22.8121 16.9552 23.2088 15.0171C23.6055 13.0791 23.2816 11.0629 22.2977 9.34673L19.1387 3.83798C18.7202 3.10866 18.1592 2.47099 17.4892 1.9629C16.8192 1.45482 16.0538 1.08671 15.2387 0.880481ZM3.88316 10.1527C3.94816 7.63723 5.22216 5.83998 7.12666 4.77398C9.08316 3.67873 11.7547 3.34398 14.4392 4.02648C15.2354 4.22798 15.9114 4.74148 16.3209 5.45323L19.4767 10.962C20.0669 11.9913 20.2615 13.2005 20.024 14.363C19.7865 15.5255 19.1331 16.5615 18.1864 17.2767L16.2332 18.7522C14.5432 20.0262 13.3732 22.2102 13.9062 24.5665C14.6277 27.758 16.2234 30.7837 18.5439 33.062C20.2404 34.726 22.6584 34.8235 24.5434 34.102L26.7079 33.2732C27.8015 32.8546 29.0092 32.8436 30.1103 33.2423C31.2113 33.6409 32.132 34.4225 32.7042 35.4442L35.8014 40.979C36.1914 41.6745 36.2564 42.5065 35.9802 43.254C35.0377 45.8052 33.2664 47.7195 31.2839 48.6327C29.3437 49.5265 27.1499 49.5005 25.0732 48.1127C20.6174 45.1422 15.0957 40.0462 10.0257 31.3655C4.95241 22.6587 3.74991 15.3982 3.88641 10.156L3.88316 10.1527Z" fill="#BF2424"/>
<path d="M35.4146 0.704812C35.0379 0.495357 34.5934 0.444114 34.179 0.562356C33.7645 0.680598 33.414 0.958638 33.2046 1.33531C32.9951 1.71199 32.9439 2.15644 33.0621 2.57089C33.1804 2.98535 33.4584 3.33586 33.8351 3.54531L35.0831 4.24081C38.9818 6.40663 42.2982 9.4842 44.7488 13.2105C47.1994 16.9368 48.7114 21.2011 49.1556 25.6388L49.2596 26.6626C49.2718 26.8817 49.3284 27.096 49.4257 27.2927C49.5231 27.4894 49.6593 27.6643 49.8261 27.8069C49.9929 27.9495 50.1869 28.0568 50.3964 28.1224C50.6058 28.188 50.8263 28.2105 51.0447 28.1886C51.263 28.1666 51.4747 28.1006 51.6669 27.9946C51.859 27.8886 52.0277 27.7448 52.1628 27.5718C52.2979 27.3989 52.3965 27.2003 52.4528 26.9882C52.509 26.7761 52.5217 26.5547 52.4901 26.3376L52.3893 25.3171C51.8934 20.3562 50.2036 15.5893 47.4643 11.4237C44.725 7.25814 41.0177 3.81788 36.6593 1.39706L35.4146 0.704812Z" fill="#BF2424"/>
<path d="M31.6057 9.41521C31.8277 9.04592 32.1872 8.77991 32.6053 8.67569C33.0234 8.57148 33.4658 8.63758 33.8352 8.85946L34.2382 9.09996C36.861 10.6731 39.1109 12.7971 40.8324 15.325C42.554 17.8529 43.7061 20.7244 44.2092 23.7412L44.3522 24.609C44.3931 24.8218 44.391 25.0406 44.3461 25.2526C44.3011 25.4645 44.2143 25.6654 44.0906 25.8433C43.9669 26.0212 43.8088 26.1726 43.6258 26.2885C43.4427 26.4045 43.2383 26.4826 43.0246 26.5184C42.8109 26.5541 42.5921 26.5468 42.3813 26.4968C42.1705 26.4468 41.9718 26.3551 41.7969 26.2271C41.622 26.0992 41.4745 25.9376 41.363 25.7518C41.2515 25.566 41.1783 25.3597 41.1477 25.1452L41.0014 24.2775C40.5761 21.725 39.6018 19.2954 38.1457 17.1564C36.6895 15.0174 34.7864 13.22 32.5677 11.8885L32.1647 11.6447C31.9815 11.535 31.8218 11.3904 31.6946 11.219C31.5674 11.0476 31.4752 10.8528 31.4233 10.6458C31.3714 10.4387 31.3608 10.2235 31.3921 10.0123C31.4234 9.8012 31.4959 9.59829 31.6057 9.41521Z" fill="#BF2424"/>
</svg>
