<svg width="985" height="62" viewBox="0 0 985 62" fill="none" xmlns="http://www.w3.org/2000/svg">
<path d="M20.1711 21.126C22.3341 21.126 24.2661 20.391 25.5681 18.963L24.5811 17.976C23.3841 19.215 21.9141 19.74 20.2341 19.74C16.6851 19.74 14.0181 17.136 14.0181 13.65C14.0181 10.164 16.6851 7.56 20.2341 7.56C21.9141 7.56 23.3841 8.085 24.5811 9.303L25.5681 8.316C24.2661 6.888 22.3341 6.174 20.1921 6.174C15.7611 6.174 12.4851 9.345 12.4851 13.65C12.4851 17.955 15.7611 21.126 20.1711 21.126ZM34.1938 9.87C32.3248 9.87 30.8758 10.605 30.0568 11.886V5.418H28.5658V21H30.0568V15.204C30.0568 12.684 31.5478 11.214 33.9208 11.214C36.0208 11.214 37.2388 12.411 37.2388 14.742V21H38.7298V14.595C38.7298 11.424 36.8818 9.87 34.1938 9.87ZM47.3337 21.105C50.5677 21.105 52.9407 18.753 52.9407 15.477C52.9407 12.201 50.5677 9.87 47.3337 9.87C44.0997 9.87 41.7057 12.201 41.7057 15.477C41.7057 18.753 44.0997 21.105 47.3337 21.105ZM47.3337 19.782C44.9817 19.782 43.2177 18.06 43.2177 15.477C43.2177 12.894 44.9817 11.172 47.3337 11.172C49.6857 11.172 51.4287 12.894 51.4287 15.477C51.4287 18.06 49.6857 19.782 47.3337 19.782ZM60.4998 21.105C63.7338 21.105 66.1068 18.753 66.1068 15.477C66.1068 12.201 63.7338 9.87 60.4998 9.87C57.2658 9.87 54.8718 12.201 54.8718 15.477C54.8718 18.753 57.2658 21.105 60.4998 21.105ZM60.4998 19.782C58.1478 19.782 56.3838 18.06 56.3838 15.477C56.3838 12.894 58.1478 11.172 60.4998 11.172C62.8518 11.172 64.5948 12.894 64.5948 15.477C64.5948 18.06 62.8518 19.782 60.4998 19.782ZM72.1118 21.105C74.9888 21.105 76.6688 19.866 76.6688 17.955C76.6688 13.713 69.5078 15.96 69.5078 12.978C69.5078 11.928 70.3898 11.151 72.3848 11.151C73.5188 11.151 74.6738 11.424 75.6398 12.096L76.2908 10.899C75.3668 10.269 73.8128 9.87 72.3848 9.87C69.5708 9.87 68.0168 11.214 68.0168 13.02C68.0168 17.388 75.1778 15.12 75.1778 17.997C75.1778 19.089 74.3168 19.803 72.2168 19.803C70.6628 19.803 69.1718 19.257 68.2898 18.564L67.6178 19.74C68.5208 20.517 70.2848 21.105 72.1118 21.105ZM89.0642 15.477C89.0642 12.159 86.8172 9.87 83.7092 9.87C80.6012 9.87 78.3122 12.201 78.3122 15.477C78.3122 18.753 80.6642 21.105 84.1082 21.105C85.8512 21.105 87.3842 20.475 88.3712 19.299L87.5312 18.333C86.6912 19.299 85.4942 19.782 84.1502 19.782C81.7352 19.782 79.9712 18.249 79.8032 15.939H89.0432C89.0432 15.771 89.0642 15.603 89.0642 15.477ZM83.7092 11.151C85.8722 11.151 87.4472 12.663 87.6362 14.826H79.8032C79.9922 12.663 81.5672 11.151 83.7092 11.151ZM101.459 9.87C99.7161 9.87 98.0781 10.416 96.9651 11.361L97.6371 12.474C98.5401 11.676 99.8841 11.172 101.312 11.172C103.37 11.172 104.441 12.201 104.441 14.091V14.763H100.934C97.7631 14.763 96.6711 16.191 96.6711 17.892C96.6711 19.803 98.2041 21.105 100.703 21.105C102.53 21.105 103.832 20.412 104.504 19.278V21H105.932V14.154C105.932 11.298 104.315 9.87 101.459 9.87ZM100.934 19.929C99.1701 19.929 98.1411 19.131 98.1411 17.85C98.1411 16.716 98.8341 15.876 100.976 15.876H104.441V17.682C103.853 19.131 102.614 19.929 100.934 19.929ZM121.295 6.3H115.793V21H117.347V16.359H121.295C125.033 16.359 127.301 14.469 127.301 11.34C127.301 8.19 125.033 6.3 121.295 6.3ZM121.253 14.994H117.347V7.644H121.253C124.193 7.644 125.747 8.988 125.747 11.34C125.747 13.65 124.193 14.994 121.253 14.994ZM131.487 12.117V9.954H130.059V21H131.55V15.372C131.55 12.768 132.957 11.298 135.267 11.298C135.372 11.298 135.498 11.319 135.624 11.319V9.87C133.587 9.87 132.18 10.647 131.487 12.117ZM142.736 21.105C145.97 21.105 148.343 18.753 148.343 15.477C148.343 12.201 145.97 9.87 142.736 9.87C139.502 9.87 137.108 12.201 137.108 15.477C137.108 18.753 139.502 21.105 142.736 21.105ZM142.736 19.782C140.384 19.782 138.62 18.06 138.62 15.477C138.62 12.894 140.384 11.172 142.736 11.172C145.088 11.172 146.831 12.894 146.831 15.477C146.831 18.06 145.088 19.782 142.736 19.782ZM160.186 9.954V12.075C159.262 10.626 157.666 9.87 155.818 9.87C152.668 9.87 150.274 12.033 150.274 15.204C150.274 18.375 152.668 20.58 155.818 20.58C157.624 20.58 159.199 19.845 160.123 18.438V19.845C160.123 22.575 158.842 23.856 156.049 23.856C154.348 23.856 152.752 23.289 151.702 22.344L150.946 23.478C152.101 24.57 154.075 25.179 156.091 25.179C159.745 25.179 161.614 23.457 161.614 19.656V9.954H160.186ZM155.965 19.257C153.529 19.257 151.786 17.598 151.786 15.204C151.786 12.81 153.529 11.172 155.965 11.172C158.401 11.172 160.165 12.81 160.165 15.204C160.165 17.598 158.401 19.257 155.965 19.257ZM167.212 12.117V9.954H165.784V21H167.275V15.372C167.275 12.768 168.682 11.298 170.992 11.298C171.097 11.298 171.223 11.319 171.349 11.319V9.87C169.312 9.87 167.905 10.647 167.212 12.117ZM177.892 9.87C176.149 9.87 174.511 10.416 173.398 11.361L174.07 12.474C174.973 11.676 176.317 11.172 177.745 11.172C179.803 11.172 180.874 12.201 180.874 14.091V14.763H177.367C174.196 14.763 173.104 16.191 173.104 17.892C173.104 19.803 174.637 21.105 177.136 21.105C178.963 21.105 180.265 20.412 180.937 19.278V21H182.365V14.154C182.365 11.298 180.748 9.87 177.892 9.87ZM177.367 19.929C175.603 19.929 174.574 19.131 174.574 17.85C174.574 16.716 175.267 15.876 177.409 15.876H180.874V17.682C180.286 19.131 179.047 19.929 177.367 19.929ZM200.19 9.87C198.195 9.87 196.62 10.773 195.822 12.201C195.15 10.647 193.722 9.87 191.895 9.87C190.047 9.87 188.619 10.647 187.842 11.97V9.954H186.414V21H187.905V15.204C187.905 12.684 189.354 11.214 191.601 11.214C193.617 11.214 194.793 12.411 194.793 14.742V21H196.284V15.204C196.284 12.684 197.712 11.214 199.98 11.214C201.975 11.214 203.151 12.411 203.151 14.742V21H204.642V14.595C204.642 11.424 202.878 9.87 200.19 9.87Z" fill="black"/>
<path d="M304.342 21H305.98L299.26 6.3H297.727L291.007 21H292.624L294.388 17.073H302.578L304.342 21ZM294.955 15.813L298.483 7.917L302.011 15.813H294.955ZM313.788 9.87C311.961 9.87 310.428 10.668 309.525 12.138V9.954H308.097V25.074H309.588V18.921C310.512 20.349 312.024 21.105 313.788 21.105C316.938 21.105 319.29 18.837 319.29 15.477C319.29 12.138 316.938 9.87 313.788 9.87ZM313.683 19.782C311.331 19.782 309.567 18.06 309.567 15.477C309.567 12.915 311.331 11.172 313.683 11.172C316.014 11.172 317.799 12.915 317.799 15.477C317.799 18.06 316.014 19.782 313.683 19.782ZM328.02 9.87C326.193 9.87 324.66 10.668 323.757 12.138V9.954H322.329V25.074H323.82V18.921C324.744 20.349 326.256 21.105 328.02 21.105C331.17 21.105 333.522 18.837 333.522 15.477C333.522 12.138 331.17 9.87 328.02 9.87ZM327.915 19.782C325.563 19.782 323.799 18.06 323.799 15.477C323.799 12.915 325.563 11.172 327.915 11.172C330.246 11.172 332.031 12.915 332.031 15.477C332.031 18.06 330.246 19.782 327.915 19.782ZM336.562 21H338.053V5.418H336.562V21ZM350.014 9.954L345.856 19.341L341.698 9.954H340.144L345.079 20.979L344.596 22.05C343.966 23.436 343.294 23.898 342.307 23.898C341.509 23.898 340.837 23.604 340.291 23.058L339.598 24.171C340.27 24.843 341.257 25.179 342.286 25.179C343.861 25.179 345.037 24.486 345.961 22.323L351.484 9.954H350.014ZM365.82 21.126C370.23 21.126 373.527 17.955 373.527 13.65C373.527 9.345 370.23 6.174 365.82 6.174C361.368 6.174 358.092 9.366 358.092 13.65C358.092 17.934 361.368 21.126 365.82 21.126ZM365.82 19.74C362.271 19.74 359.625 17.157 359.625 13.65C359.625 10.143 362.271 7.56 365.82 7.56C369.348 7.56 371.973 10.143 371.973 13.65C371.973 17.157 369.348 19.74 365.82 19.74ZM382.324 9.87C380.413 9.87 378.922 10.647 378.124 11.991V9.954H376.696V21H378.187V15.204C378.187 12.684 379.678 11.214 382.051 11.214C384.151 11.214 385.369 12.411 385.369 14.742V21H386.86V14.595C386.86 11.424 385.012 9.87 382.324 9.87ZM390.908 21H392.399V5.418H390.908V21ZM397.303 7.539C397.933 7.539 398.395 7.056 398.395 6.447C398.395 5.88 397.912 5.418 397.303 5.418C396.694 5.418 396.211 5.901 396.211 6.468C396.211 7.056 396.694 7.539 397.303 7.539ZM396.547 21H398.038V9.954H396.547V21ZM407.815 9.87C405.904 9.87 404.413 10.647 403.615 11.991V9.954H402.187V21H403.678V15.204C403.678 12.684 405.169 11.214 407.542 11.214C409.642 11.214 410.86 12.411 410.86 14.742V21H412.351V14.595C412.351 11.424 410.503 9.87 407.815 9.87ZM426.079 15.477C426.079 12.159 423.832 9.87 420.724 9.87C417.616 9.87 415.327 12.201 415.327 15.477C415.327 18.753 417.679 21.105 421.123 21.105C422.866 21.105 424.399 20.475 425.386 19.299L424.546 18.333C423.706 19.299 422.509 19.782 421.165 19.782C418.75 19.782 416.986 18.249 416.818 15.939H426.058C426.058 15.771 426.079 15.603 426.079 15.477ZM420.724 11.151C422.887 11.151 424.462 12.663 424.651 14.826H416.818C417.007 12.663 418.582 11.151 420.724 11.151Z" fill="black"/>
<path d="M526.071 21.126C529.83 21.126 531.552 19.278 531.552 17.115C531.552 11.76 522.501 14.196 522.501 10.164C522.501 8.694 523.698 7.497 526.386 7.497C527.688 7.497 529.158 7.896 530.418 8.715L530.943 7.476C529.767 6.657 528.045 6.174 526.386 6.174C522.648 6.174 520.968 8.043 520.968 10.206C520.968 15.645 530.019 13.167 530.019 17.199C530.019 18.648 528.822 19.803 526.071 19.803C524.139 19.803 522.27 19.047 521.22 18.018L520.611 19.215C521.703 20.349 523.866 21.126 526.071 21.126ZM540.314 9.87C538.487 9.87 536.954 10.668 536.051 12.138V9.954H534.623V25.074H536.114V18.921C537.038 20.349 538.55 21.105 540.314 21.105C543.464 21.105 545.816 18.837 545.816 15.477C545.816 12.138 543.464 9.87 540.314 9.87ZM540.209 19.782C537.857 19.782 536.093 18.06 536.093 15.477C536.093 12.915 537.857 11.172 540.209 11.172C542.54 11.172 544.325 12.915 544.325 15.477C544.325 18.06 542.54 19.782 540.209 19.782ZM558.494 15.477C558.494 12.159 556.247 9.87 553.139 9.87C550.031 9.87 547.742 12.201 547.742 15.477C547.742 18.753 550.094 21.105 553.538 21.105C555.281 21.105 556.814 20.475 557.801 19.299L556.961 18.333C556.121 19.299 554.924 19.782 553.58 19.782C551.165 19.782 549.401 18.249 549.233 15.939H558.473C558.473 15.771 558.494 15.603 558.494 15.477ZM553.139 11.151C555.302 11.151 556.877 12.663 557.066 14.826H549.233C549.422 12.663 550.997 11.151 553.139 11.151ZM565.086 9.87C563.343 9.87 561.705 10.416 560.592 11.361L561.264 12.474C562.167 11.676 563.511 11.172 564.939 11.172C566.997 11.172 568.068 12.201 568.068 14.091V14.763H564.561C561.39 14.763 560.298 16.191 560.298 17.892C560.298 19.803 561.831 21.105 564.33 21.105C566.157 21.105 567.459 20.412 568.131 19.278V21H569.559V14.154C569.559 11.298 567.942 9.87 565.086 9.87ZM564.561 19.929C562.797 19.929 561.768 19.131 561.768 17.85C561.768 16.716 562.461 15.876 564.603 15.876H568.068V17.682C567.48 19.131 566.241 19.929 564.561 19.929ZM582.155 21H583.982L578.816 14.469L583.541 9.954H581.693L575.099 15.981V5.418H573.608V21H575.099V17.85L577.703 15.456L582.155 21ZM597.009 19.257C596.589 19.635 595.98 19.824 595.371 19.824C594.132 19.824 593.46 19.11 593.46 17.808V11.214H596.82V9.954H593.46V7.539H591.969V9.954H589.995V11.214H591.969V17.892C591.969 19.929 593.124 21.105 595.203 21.105C596.064 21.105 596.946 20.853 597.534 20.328L597.009 19.257ZM604.373 21.105C607.607 21.105 609.98 18.753 609.98 15.477C609.98 12.201 607.607 9.87 604.373 9.87C601.139 9.87 598.745 12.201 598.745 15.477C598.745 18.753 601.139 21.105 604.373 21.105ZM604.373 19.782C602.021 19.782 600.257 18.06 600.257 15.477C600.257 12.894 602.021 11.172 604.373 11.172C606.725 11.172 608.468 12.894 608.468 15.477C608.468 18.06 606.725 19.782 604.373 19.782ZM629.818 21H631.456L624.736 6.3H623.203L616.483 21H618.1L619.864 17.073H628.054L629.818 21ZM620.431 15.813L623.959 7.917L627.487 15.813H620.431ZM642.06 5.418V12.054C641.136 10.626 639.624 9.87 637.86 9.87C634.71 9.87 632.358 12.138 632.358 15.477C632.358 18.816 634.71 21.105 637.86 21.105C639.687 21.105 641.22 20.307 642.123 18.816V21H643.551V5.418H642.06ZM637.986 19.782C635.634 19.782 633.87 18.06 633.87 15.477C633.87 12.894 635.634 11.172 637.986 11.172C640.317 11.172 642.081 12.894 642.081 15.477C642.081 18.06 640.317 19.782 637.986 19.782ZM661.479 9.87C659.484 9.87 657.909 10.773 657.111 12.201C656.439 10.647 655.011 9.87 653.184 9.87C651.336 9.87 649.908 10.647 649.131 11.97V9.954H647.703V21H649.194V15.204C649.194 12.684 650.643 11.214 652.89 11.214C654.906 11.214 656.082 12.411 656.082 14.742V21H657.573V15.204C657.573 12.684 659.001 11.214 661.269 11.214C663.264 11.214 664.44 12.411 664.44 14.742V21H665.931V14.595C665.931 11.424 664.167 9.87 661.479 9.87ZM670.731 7.539C671.361 7.539 671.823 7.056 671.823 6.447C671.823 5.88 671.34 5.418 670.731 5.418C670.122 5.418 669.639 5.901 669.639 6.468C669.639 7.056 670.122 7.539 670.731 7.539ZM669.975 21H671.466V9.954H669.975V21ZM678.575 21.105C681.452 21.105 683.132 19.866 683.132 17.955C683.132 13.713 675.971 15.96 675.971 12.978C675.971 11.928 676.853 11.151 678.848 11.151C679.982 11.151 681.137 11.424 682.103 12.096L682.754 10.899C681.83 10.269 680.276 9.87 678.848 9.87C676.034 9.87 674.48 11.214 674.48 13.02C674.48 17.388 681.641 15.12 681.641 17.997C681.641 19.089 680.78 19.803 678.68 19.803C677.126 19.803 675.635 19.257 674.753 18.564L674.081 19.74C674.984 20.517 676.748 21.105 678.575 21.105ZM688.85 21.105C691.727 21.105 693.407 19.866 693.407 17.955C693.407 13.713 686.246 15.96 686.246 12.978C686.246 11.928 687.128 11.151 689.123 11.151C690.257 11.151 691.412 11.424 692.378 12.096L693.029 10.899C692.105 10.269 690.551 9.87 689.123 9.87C686.309 9.87 684.755 11.214 684.755 13.02C684.755 17.388 691.916 15.12 691.916 17.997C691.916 19.089 691.055 19.803 688.955 19.803C687.401 19.803 685.91 19.257 685.028 18.564L684.356 19.74C685.259 20.517 687.023 21.105 688.85 21.105ZM696.919 7.539C697.549 7.539 698.011 7.056 698.011 6.447C698.011 5.88 697.528 5.418 696.919 5.418C696.31 5.418 695.827 5.901 695.827 6.468C695.827 7.056 696.31 7.539 696.919 7.539ZM696.163 21H697.654V9.954H696.163V21ZM706.318 21.105C709.552 21.105 711.925 18.753 711.925 15.477C711.925 12.201 709.552 9.87 706.318 9.87C703.084 9.87 700.69 12.201 700.69 15.477C700.69 18.753 703.084 21.105 706.318 21.105ZM706.318 19.782C703.966 19.782 702.202 18.06 702.202 15.477C702.202 12.894 703.966 11.172 706.318 11.172C708.67 11.172 710.413 12.894 710.413 15.477C710.413 18.06 708.67 19.782 706.318 19.782ZM720.597 9.87C718.686 9.87 717.195 10.647 716.397 11.991V9.954H714.969V21H716.46V15.204C716.46 12.684 717.951 11.214 720.324 11.214C722.424 11.214 723.642 12.411 723.642 14.742V21H725.133V14.595C725.133 11.424 723.285 9.87 720.597 9.87ZM732.142 21.105C735.019 21.105 736.699 19.866 736.699 17.955C736.699 13.713 729.538 15.96 729.538 12.978C729.538 11.928 730.42 11.151 732.415 11.151C733.549 11.151 734.704 11.424 735.67 12.096L736.321 10.899C735.397 10.269 733.843 9.87 732.415 9.87C729.601 9.87 728.047 11.214 728.047 13.02C728.047 17.388 735.208 15.12 735.208 17.997C735.208 19.089 734.347 19.803 732.247 19.803C730.693 19.803 729.202 19.257 728.32 18.564L727.648 19.74C728.551 20.517 730.315 21.105 732.142 21.105ZM579.415 47.126C581.578 47.126 583.51 46.391 584.812 44.963L583.825 43.976C582.628 45.215 581.158 45.74 579.478 45.74C575.929 45.74 573.262 43.136 573.262 39.65C573.262 36.164 575.929 33.56 579.478 33.56C581.158 33.56 582.628 34.085 583.825 35.303L584.812 34.316C583.51 32.888 581.578 32.174 579.436 32.174C575.005 32.174 571.729 35.345 571.729 39.65C571.729 43.955 575.005 47.126 579.415 47.126ZM591.833 47.105C595.067 47.105 597.44 44.753 597.44 41.477C597.44 38.201 595.067 35.87 591.833 35.87C588.599 35.87 586.205 38.201 586.205 41.477C586.205 44.753 588.599 47.105 591.833 47.105ZM591.833 45.782C589.481 45.782 587.717 44.06 587.717 41.477C587.717 38.894 589.481 37.172 591.833 37.172C594.185 37.172 595.928 38.894 595.928 41.477C595.928 44.06 594.185 45.782 591.833 45.782ZM606.112 35.87C604.201 35.87 602.71 36.647 601.912 37.991V35.954H600.484V47H601.975V41.204C601.975 38.684 603.466 37.214 605.839 37.214C607.939 37.214 609.157 38.411 609.157 40.742V47H610.648V40.595C610.648 37.424 608.8 35.87 606.112 35.87ZM617.657 47.105C620.534 47.105 622.214 45.866 622.214 43.955C622.214 39.713 615.053 41.96 615.053 38.978C615.053 37.928 615.935 37.151 617.93 37.151C619.064 37.151 620.219 37.424 621.185 38.096L621.836 36.899C620.912 36.269 619.358 35.87 617.93 35.87C615.116 35.87 613.562 37.214 613.562 39.02C613.562 43.388 620.723 41.12 620.723 43.997C620.723 45.089 619.862 45.803 617.762 45.803C616.208 45.803 614.717 45.257 613.835 44.564L613.163 45.74C614.066 46.517 615.83 47.105 617.657 47.105ZM633.433 35.954V41.75C633.433 44.27 631.984 45.761 629.674 45.761C627.574 45.761 626.356 44.564 626.356 42.212V35.954H624.865V42.359C624.865 45.53 626.713 47.105 629.527 47.105C631.291 47.105 632.719 46.328 633.496 44.984V47H634.924V35.954H633.433ZM639.1 47H640.591V31.418H639.1V47ZM650.073 45.257C649.653 45.635 649.044 45.824 648.435 45.824C647.196 45.824 646.524 45.11 646.524 43.808V37.214H649.884V35.954H646.524V33.539H645.033V35.954H643.059V37.214H645.033V43.892C645.033 45.929 646.188 47.105 648.267 47.105C649.128 47.105 650.01 46.853 650.598 46.328L650.073 45.257ZM657.176 35.87C655.433 35.87 653.795 36.416 652.682 37.361L653.354 38.474C654.257 37.676 655.601 37.172 657.029 37.172C659.087 37.172 660.158 38.201 660.158 40.091V40.763H656.651C653.48 40.763 652.388 42.191 652.388 43.892C652.388 45.803 653.921 47.105 656.42 47.105C658.247 47.105 659.549 46.412 660.221 45.278V47H661.649V40.154C661.649 37.298 660.032 35.87 657.176 35.87ZM656.651 45.929C654.887 45.929 653.858 45.131 653.858 43.85C653.858 42.716 654.551 41.876 656.693 41.876H660.158V43.682C659.57 45.131 658.331 45.929 656.651 45.929ZM671.327 35.87C669.416 35.87 667.925 36.647 667.127 37.991V35.954H665.699V47H667.19V41.204C667.19 38.684 668.681 37.214 671.054 37.214C673.154 37.214 674.372 38.411 674.372 40.742V47H675.863V40.595C675.863 37.424 674.015 35.87 671.327 35.87ZM685.203 45.257C684.783 45.635 684.174 45.824 683.565 45.824C682.326 45.824 681.654 45.11 681.654 43.808V37.214H685.014V35.954H681.654V33.539H680.163V35.954H678.189V37.214H680.163V43.892C680.163 45.929 681.318 47.105 683.397 47.105C684.258 47.105 685.14 46.853 685.728 46.328L685.203 45.257Z" fill="black"/>
<path d="M837.723 21.126C840.537 21.126 842.007 19.593 842.007 16.485V6.3H835.098V7.644H840.474V16.548C840.474 18.711 839.55 19.782 837.744 19.782C836.442 19.782 835.371 19.152 834.573 17.976L833.649 19.026C834.552 20.37 836.064 21.126 837.723 21.126ZM850.868 21.105C854.102 21.105 856.475 18.753 856.475 15.477C856.475 12.201 854.102 9.87 850.868 9.87C847.634 9.87 845.24 12.201 845.24 15.477C845.24 18.753 847.634 21.105 850.868 21.105ZM850.868 19.782C848.516 19.782 846.752 18.06 846.752 15.477C846.752 12.894 848.516 11.172 850.868 11.172C853.22 11.172 854.963 12.894 854.963 15.477C854.963 18.06 853.22 19.782 850.868 19.782ZM860.275 7.539C860.905 7.539 861.367 7.056 861.367 6.447C861.367 5.88 860.884 5.418 860.275 5.418C859.666 5.418 859.183 5.901 859.183 6.468C859.183 7.056 859.666 7.539 860.275 7.539ZM859.519 21H861.01V9.954H859.519V21ZM870.787 9.87C868.876 9.87 867.385 10.647 866.587 11.991V9.954H865.159V21H866.65V15.204C866.65 12.684 868.141 11.214 870.514 11.214C872.614 11.214 873.832 12.411 873.832 14.742V21H875.323V14.595C875.323 11.424 873.475 9.87 870.787 9.87ZM890.159 19.257C889.739 19.635 889.13 19.824 888.521 19.824C887.282 19.824 886.61 19.11 886.61 17.808V11.214H889.97V9.954H886.61V7.539H885.119V9.954H883.145V11.214H885.119V17.892C885.119 19.929 886.274 21.105 888.353 21.105C889.214 21.105 890.096 20.853 890.684 20.328L890.159 19.257ZM899.026 9.87C897.157 9.87 895.708 10.605 894.889 11.886V5.418H893.398V21H894.889V15.204C894.889 12.684 896.38 11.214 898.753 11.214C900.853 11.214 902.071 12.411 902.071 14.742V21H903.562V14.595C903.562 11.424 901.714 9.87 899.026 9.87ZM917.29 15.477C917.29 12.159 915.043 9.87 911.935 9.87C908.827 9.87 906.538 12.201 906.538 15.477C906.538 18.753 908.89 21.105 912.334 21.105C914.077 21.105 915.61 20.475 916.597 19.299L915.757 18.333C914.917 19.299 913.72 19.782 912.376 19.782C909.961 19.782 908.197 18.249 908.029 15.939H917.269C917.269 15.771 917.29 15.603 917.29 15.477ZM911.935 11.151C914.098 11.151 915.673 12.663 915.862 14.826H908.029C908.218 12.663 909.793 11.151 911.935 11.151ZM837.292 32.3H831.79V47H833.344V42.359H837.292C841.03 42.359 843.298 40.469 843.298 37.34C843.298 34.19 841.03 32.3 837.292 32.3ZM837.25 40.994H833.344V33.644H837.25C840.19 33.644 841.744 34.988 841.744 37.34C841.744 39.65 840.19 40.994 837.25 40.994ZM847.484 38.117V35.954H846.056V47H847.547V41.372C847.547 38.768 848.954 37.298 851.264 37.298C851.369 37.298 851.495 37.319 851.621 37.319V35.87C849.584 35.87 848.177 36.647 847.484 38.117ZM858.733 47.105C861.967 47.105 864.34 44.753 864.34 41.477C864.34 38.201 861.967 35.87 858.733 35.87C855.499 35.87 853.105 38.201 853.105 41.477C853.105 44.753 855.499 47.105 858.733 47.105ZM858.733 45.782C856.381 45.782 854.617 44.06 854.617 41.477C854.617 38.894 856.381 37.172 858.733 37.172C861.085 37.172 862.828 38.894 862.828 41.477C862.828 44.06 861.085 45.782 858.733 45.782ZM876.183 35.954V38.075C875.259 36.626 873.663 35.87 871.815 35.87C868.665 35.87 866.271 38.033 866.271 41.204C866.271 44.375 868.665 46.58 871.815 46.58C873.621 46.58 875.196 45.845 876.12 44.438V45.845C876.12 48.575 874.839 49.856 872.046 49.856C870.345 49.856 868.749 49.289 867.699 48.344L866.943 49.478C868.098 50.57 870.072 51.179 872.088 51.179C875.742 51.179 877.611 49.457 877.611 45.656V35.954H876.183ZM871.962 45.257C869.526 45.257 867.783 43.598 867.783 41.204C867.783 38.81 869.526 37.172 871.962 37.172C874.398 37.172 876.162 38.81 876.162 41.204C876.162 43.598 874.398 45.257 871.962 45.257ZM883.209 38.117V35.954H881.781V47H883.272V41.372C883.272 38.768 884.679 37.298 886.989 37.298C887.094 37.298 887.22 37.319 887.346 37.319V35.87C885.309 35.87 883.902 36.647 883.209 38.117ZM893.889 35.87C892.146 35.87 890.508 36.416 889.395 37.361L890.067 38.474C890.97 37.676 892.314 37.172 893.742 37.172C895.8 37.172 896.871 38.201 896.871 40.091V40.763H893.364C890.193 40.763 889.101 42.191 889.101 43.892C889.101 45.803 890.634 47.105 893.133 47.105C894.96 47.105 896.262 46.412 896.934 45.278V47H898.362V40.154C898.362 37.298 896.745 35.87 893.889 35.87ZM893.364 45.929C891.6 45.929 890.571 45.131 890.571 43.85C890.571 42.716 891.264 41.876 893.406 41.876H896.871V43.682C896.283 45.131 895.044 45.929 893.364 45.929ZM916.188 35.87C914.193 35.87 912.618 36.773 911.82 38.201C911.148 36.647 909.72 35.87 907.893 35.87C906.045 35.87 904.617 36.647 903.84 37.97V35.954H902.412V47H903.903V41.204C903.903 38.684 905.352 37.214 907.599 37.214C909.615 37.214 910.791 38.411 910.791 40.742V47H912.282V41.204C912.282 38.684 913.71 37.214 915.978 37.214C917.973 37.214 919.149 38.411 919.149 40.742V47H920.64V40.595C920.64 37.424 918.876 35.87 916.188 35.87Z" fill="black"/>
</svg>
