<svg width="402" height="39" viewBox="0 0 402 39" fill="none" xmlns="http://www.w3.org/2000/svg">
<path d="M15.589 38.636C12.6563 38.636 9.812 38.2473 7.056 37.47C4.33533 36.6573 2.14467 35.615 0.484 34.343L3.399 27.877C4.989 29.043 6.87933 29.9793 9.07 30.686C11.2607 31.3927 13.4513 31.746 15.642 31.746C18.08 31.746 19.882 31.3927 21.048 30.686C22.214 29.944 22.797 28.9723 22.797 27.771C22.797 26.8877 22.4437 26.1633 21.737 25.598C21.0657 24.9973 20.1823 24.5203 19.087 24.167C18.027 23.8137 16.5783 23.425 14.741 23.001C11.9143 22.3297 9.6 21.6583 7.798 20.987C5.996 20.3157 4.44133 19.238 3.134 17.754C1.862 16.27 1.226 14.2913 1.226 11.818C1.226 9.66267 1.809 7.71933 2.975 5.988C4.141 4.22133 5.89 2.82566 8.222 1.801C10.5893 0.776332 13.469 0.263999 16.861 0.263999C19.2283 0.263999 21.5427 0.546666 23.804 1.112C26.0653 1.67733 28.044 2.49 29.74 3.55L27.09 10.069C23.6627 8.12567 20.2353 7.154 16.808 7.154C14.4053 7.154 12.621 7.54267 11.455 8.32C10.3243 9.09733 9.759 10.122 9.759 11.394C9.759 12.666 10.4127 13.62 11.72 14.256C13.0627 14.8567 15.0943 15.4573 17.815 16.058C20.6417 16.7293 22.956 17.4007 24.758 18.072C26.56 18.7433 28.097 19.8033 29.369 21.252C30.6763 22.7007 31.33 24.6617 31.33 27.135C31.33 29.255 30.7293 31.1983 29.528 32.965C28.362 34.6963 26.5953 36.0743 24.228 37.099C21.8607 38.1237 18.981 38.636 15.589 38.636ZM54.9519 38.636C51.1712 38.636 47.7439 37.8233 44.6699 36.198C41.6312 34.5373 39.2285 32.2583 37.4619 29.361C35.7305 26.4283 34.8649 23.1247 34.8649 19.45C34.8649 15.7753 35.7305 12.4893 37.4619 9.592C39.2285 6.65933 41.6312 4.38033 44.6699 2.755C47.7439 1.09433 51.1889 0.263999 55.0049 0.263999C58.2202 0.263999 61.1175 0.829333 63.6969 1.96C66.3115 3.09067 68.5022 4.716 70.2689 6.836L64.7569 11.924C62.2482 9.02667 59.1389 7.578 55.4289 7.578C53.1322 7.578 51.0829 8.09033 49.2809 9.115C47.4789 10.1043 46.0655 11.5 45.0409 13.302C44.0515 15.104 43.5569 17.1533 43.5569 19.45C43.5569 21.7467 44.0515 23.796 45.0409 25.598C46.0655 27.4 47.4789 28.8133 49.2809 29.838C51.0829 30.8273 53.1322 31.322 55.4289 31.322C59.1389 31.322 62.2482 29.8557 64.7569 26.923L70.2689 32.011C68.5022 34.1663 66.3115 35.8093 63.6969 36.94C61.0822 38.0707 58.1672 38.636 54.9519 38.636ZM110.093 0.899997V38H101.507V22.789H84.653V38H76.067V0.899997H84.653V15.528H101.507V0.899997H110.093ZM136.838 38.636C132.986 38.636 129.506 37.8057 126.397 36.145C123.323 34.4843 120.902 32.2053 119.136 29.308C117.404 26.3753 116.539 23.0893 116.539 19.45C116.539 15.8107 117.404 12.5423 119.136 9.645C120.902 6.71233 123.323 4.41567 126.397 2.755C129.506 1.09433 132.986 0.263999 136.838 0.263999C140.689 0.263999 144.152 1.09433 147.226 2.755C150.3 4.41567 152.72 6.71233 154.487 9.645C156.253 12.5423 157.137 15.8107 157.137 19.45C157.137 23.0893 156.253 26.3753 154.487 29.308C152.72 32.2053 150.3 34.4843 147.226 36.145C144.152 37.8057 140.689 38.636 136.838 38.636ZM136.838 31.322C139.028 31.322 141.007 30.8273 142.774 29.838C144.54 28.8133 145.918 27.4 146.908 25.598C147.932 23.796 148.445 21.7467 148.445 19.45C148.445 17.1533 147.932 15.104 146.908 13.302C145.918 11.5 144.54 10.1043 142.774 9.115C141.007 8.09033 139.028 7.578 136.838 7.578C134.647 7.578 132.668 8.09033 130.902 9.115C129.135 10.1043 127.739 11.5 126.715 13.302C125.725 15.104 125.231 17.1533 125.231 19.45C125.231 21.7467 125.725 23.796 126.715 25.598C127.739 27.4 129.135 28.8133 130.902 29.838C132.668 30.8273 134.647 31.322 136.838 31.322ZM163.589 0.899997H172.175V31.004H190.778V38H163.589V0.899997ZM220.319 30.05H203.094L199.808 38H191.01L207.546 0.899997H216.026L232.615 38H223.605L220.319 30.05ZM217.616 23.531L211.733 9.327L205.85 23.531H217.616ZM260.102 38L252.947 27.665H252.523H245.05V38H236.464V0.899997H252.523C255.809 0.899997 258.654 1.44766 261.056 2.543C263.494 3.63833 265.367 5.193 266.674 7.207C267.982 9.221 268.635 11.606 268.635 14.362C268.635 17.118 267.964 19.503 266.621 21.517C265.314 23.4957 263.441 25.015 261.003 26.075L269.324 38H260.102ZM259.943 14.362C259.943 12.2773 259.272 10.6873 257.929 9.592C256.587 8.46133 254.626 7.896 252.046 7.896H245.05V20.828H252.046C254.626 20.828 256.587 20.2627 257.929 19.132C259.272 18.0013 259.943 16.4113 259.943 14.362ZM287.628 38.636C284.695 38.636 281.851 38.2473 279.095 37.47C276.374 36.6573 274.184 35.615 272.523 34.343L275.438 27.877C277.028 29.043 278.918 29.9793 281.109 30.686C283.3 31.3927 285.49 31.746 287.681 31.746C290.119 31.746 291.921 31.3927 293.087 30.686C294.253 29.944 294.836 28.9723 294.836 27.771C294.836 26.8877 294.483 26.1633 293.776 25.598C293.105 24.9973 292.221 24.5203 291.126 24.167C290.066 23.8137 288.617 23.425 286.78 23.001C283.953 22.3297 281.639 21.6583 279.837 20.987C278.035 20.3157 276.48 19.238 275.173 17.754C273.901 16.27 273.265 14.2913 273.265 11.818C273.265 9.66267 273.848 7.71933 275.014 5.988C276.18 4.22133 277.929 2.82566 280.261 1.801C282.628 0.776332 285.508 0.263999 288.9 0.263999C291.267 0.263999 293.582 0.546666 295.843 1.112C298.104 1.67733 300.083 2.49 301.779 3.55L299.129 10.069C295.702 8.12567 292.274 7.154 288.847 7.154C286.444 7.154 284.66 7.54267 283.494 8.32C282.363 9.09733 281.798 10.122 281.798 11.394C281.798 12.666 282.452 13.62 283.759 14.256C285.102 14.8567 287.133 15.4573 289.854 16.058C292.681 16.7293 294.995 17.4007 296.797 18.072C298.599 18.7433 300.136 19.8033 301.408 21.252C302.715 22.7007 303.369 24.6617 303.369 27.135C303.369 29.255 302.768 31.1983 301.567 32.965C300.401 34.6963 298.634 36.0743 296.267 37.099C293.9 38.1237 291.02 38.636 287.628 38.636ZM343.262 0.899997V38H334.676V22.789H317.822V38H309.236V0.899997H317.822V15.528H334.676V0.899997H343.262ZM352.04 0.899997H360.626V38H352.04V0.899997ZM385.489 0.899997C388.775 0.899997 391.62 1.44766 394.022 2.543C396.46 3.63833 398.333 5.193 399.64 7.207C400.948 9.221 401.601 11.606 401.601 14.362C401.601 17.0827 400.948 19.4677 399.64 21.517C398.333 23.531 396.46 25.0857 394.022 26.181C391.62 27.241 388.775 27.771 385.489 27.771H378.016V38H369.43V0.899997H385.489ZM385.012 20.775C387.592 20.775 389.553 20.2273 390.895 19.132C392.238 18.0013 392.909 16.4113 392.909 14.362C392.909 12.2773 392.238 10.6873 390.895 9.592C389.553 8.46133 387.592 7.896 385.012 7.896H378.016V20.775H385.012Z" fill="url(#paint0_linear)"/>
<defs>
<linearGradient id="paint0_linear" x1="10.3725" y1="37.7425" x2="229.646" y2="37.7425" gradientUnits="userSpaceOnUse">
<stop stop-color="#B10F56"/>
<stop offset="1" stop-color="#D00846"/>
</linearGradient>
</defs>
</svg>
