<svg width="271" height="77" viewBox="0 0 271 77" fill="none" xmlns="http://www.w3.org/2000/svg">
<path d="M32.136 2.2V75H15.288V15.72H0.728V2.2H32.136ZM75.9826 76.248C69.9506 76.248 64.5772 74.7573 59.8626 71.776C55.1479 68.7947 51.4386 64.496 48.7346 58.88C46.0999 53.1947 44.7826 46.4347 44.7826 38.6C44.7826 30.7653 46.0999 24.04 48.7346 18.424C51.4386 12.7387 55.1479 8.40533 59.8626 5.424C64.5772 2.44266 69.9506 0.951999 75.9826 0.951999C82.0146 0.951999 87.3879 2.44266 92.1026 5.424C96.8172 8.40533 100.492 12.7387 103.127 18.424C105.831 24.04 107.183 30.7653 107.183 38.6C107.183 46.4347 105.831 53.1947 103.127 58.88C100.492 64.496 96.8172 68.7947 92.1026 71.776C87.3879 74.7573 82.0146 76.248 75.9826 76.248ZM75.9826 62C80.4199 62 83.8866 60.0933 86.3826 56.28C88.9479 52.4667 90.2306 46.5733 90.2306 38.6C90.2306 30.6267 88.9479 24.7333 86.3826 20.92C83.8866 17.1067 80.4199 15.2 75.9826 15.2C71.6146 15.2 68.1479 17.1067 65.5826 20.92C63.0866 24.7333 61.8386 30.6267 61.8386 38.6C61.8386 46.5733 63.0866 52.4667 65.5826 56.28C68.1479 60.0933 71.6146 62 75.9826 62ZM146.569 76.248C140.537 76.248 135.163 74.7573 130.449 71.776C125.734 68.7947 122.025 64.496 119.321 58.88C116.686 53.1947 115.369 46.4347 115.369 38.6C115.369 30.7653 116.686 24.04 119.321 18.424C122.025 12.7387 125.734 8.40533 130.449 5.424C135.163 2.44266 140.537 0.951999 146.569 0.951999C152.601 0.951999 157.974 2.44266 162.689 5.424C167.403 8.40533 171.078 12.7387 173.713 18.424C176.417 24.04 177.769 30.7653 177.769 38.6C177.769 46.4347 176.417 53.1947 173.713 58.88C171.078 64.496 167.403 68.7947 162.689 71.776C157.974 74.7573 152.601 76.248 146.569 76.248ZM146.569 62C151.006 62 154.473 60.0933 156.969 56.28C159.534 52.4667 160.817 46.5733 160.817 38.6C160.817 30.6267 159.534 24.7333 156.969 20.92C154.473 17.1067 151.006 15.2 146.569 15.2C142.201 15.2 138.734 17.1067 136.169 20.92C133.673 24.7333 132.425 30.6267 132.425 38.6C132.425 46.5733 133.673 52.4667 136.169 56.28C138.734 60.0933 142.201 62 146.569 62ZM202.802 41.512C197.464 41.512 193.096 39.7093 189.698 36.104C186.37 32.4293 184.706 27.5413 184.706 21.44C184.706 15.3387 186.37 10.4853 189.698 6.88C193.096 3.20533 197.464 1.368 202.802 1.368C208.141 1.368 212.474 3.20533 215.802 6.88C219.13 10.4853 220.794 15.3387 220.794 21.44C220.794 27.5413 219.13 32.4293 215.802 36.104C212.474 39.7093 208.141 41.512 202.802 41.512ZM246.17 2.2H258.546L208.834 75H196.458L246.17 2.2ZM202.802 32.984C205.16 32.984 206.997 32.0133 208.314 30.072C209.701 28.1307 210.394 25.2533 210.394 21.44C210.394 17.6267 209.701 14.7493 208.314 12.808C206.997 10.8667 205.16 9.896 202.802 9.896C200.514 9.896 198.677 10.9013 197.29 12.912C195.904 14.8533 195.21 17.696 195.21 21.44C195.21 25.184 195.904 28.0613 197.29 30.072C198.677 32.0133 200.514 32.984 202.802 32.984ZM252.202 75.832C248.736 75.832 245.616 75.0347 242.842 73.44C240.138 71.776 238.024 69.4187 236.498 66.368C234.973 63.3173 234.21 59.7813 234.21 55.76C234.21 51.7387 234.973 48.2027 236.498 45.152C238.024 42.1013 240.138 39.7787 242.842 38.184C245.616 36.52 248.736 35.688 252.202 35.688C257.541 35.688 261.874 37.5253 265.202 41.2C268.6 44.8053 270.298 49.6587 270.298 55.76C270.298 61.8613 268.6 66.7493 265.202 70.424C261.874 74.0293 257.541 75.832 252.202 75.832ZM252.202 67.304C254.56 67.304 256.397 66.3333 257.714 64.392C259.101 62.3813 259.794 59.504 259.794 55.76C259.794 52.016 259.101 49.1733 257.714 47.232C256.397 45.2213 254.56 44.216 252.202 44.216C249.914 44.216 248.077 45.1867 246.69 47.128C245.304 49.0693 244.61 51.9467 244.61 55.76C244.61 59.5733 245.304 62.4507 246.69 64.392C248.077 66.3333 249.914 67.304 252.202 67.304Z" fill="url(#paint0_linear)"/>
<defs>
<linearGradient id="paint0_linear" x1="18.4313" y1="143.479" x2="373.805" y2="143.479" gradientUnits="userSpaceOnUse">
<stop stop-color="#B10F56"/>
<stop offset="1" stop-color="#D00846"/>
</linearGradient>
</defs>
</svg>
