<svg width="365" height="54" viewBox="0 0 365 54" fill="none" xmlns="http://www.w3.org/2000/svg">
<path d="M16.776 16.65H7.351L5.553 21H0.739L9.787 0.699999H14.427L23.504 21H18.574L16.776 16.65ZM15.297 13.083L12.078 5.311L8.859 13.083H15.297ZM44.0831 21L44.0541 8.82L38.0801 18.854H35.9631L30.0181 9.081V21H25.6101V0.699999H29.4961L37.0941 13.315L44.5761 0.699999H48.4331L48.4911 21H44.0831ZM66.2414 21L62.3264 15.345H62.0944H58.0054V21H53.3074V0.699999H62.0944C63.8924 0.699999 65.4487 0.999665 66.7634 1.599C68.0974 2.19833 69.1221 3.049 69.8374 4.151C70.5527 5.253 70.9104 6.558 70.9104 8.066C70.9104 9.574 70.5431 10.879 69.8084 11.981C69.0931 13.0637 68.0684 13.895 66.7344 14.475L71.2874 21H66.2414ZM66.1544 8.066C66.1544 6.92533 65.7871 6.05533 65.0524 5.456C64.3177 4.83733 63.2447 4.528 61.8334 4.528H58.0054V11.604H61.8334C63.2447 11.604 64.3177 11.2947 65.0524 10.676C65.7871 10.0573 66.1544 9.18733 66.1544 8.066ZM74.6326 0.699999H79.3306V21H74.6326V0.699999ZM88.3532 4.528H81.8572V0.699999H99.5472V4.528H93.0512V21H88.3532V4.528ZM114.424 16.65H104.999L103.201 21H98.3874L107.435 0.699999H112.075L121.152 21H116.222L114.424 16.65ZM112.945 13.083L109.726 5.311L106.507 13.083H112.945ZM141.186 21.348C139.118 21.348 137.242 20.9033 135.56 20.014C133.898 19.1053 132.583 17.8583 131.616 16.273C130.669 14.6683 130.195 12.8607 130.195 10.85C130.195 8.83933 130.669 7.04133 131.616 5.456C132.583 3.85133 133.898 2.60433 135.56 1.715C137.242 0.806333 139.127 0.352 141.215 0.352C142.975 0.352 144.56 0.661333 145.971 1.28C147.402 1.89867 148.601 2.788 149.567 3.948L146.551 6.732C145.179 5.14667 143.477 4.354 141.447 4.354C140.191 4.354 139.069 4.63433 138.083 5.195C137.097 5.73633 136.324 6.5 135.763 7.486C135.222 8.472 134.951 9.59333 134.951 10.85C134.951 12.1067 135.222 13.228 135.763 14.214C136.324 15.2 137.097 15.9733 138.083 16.534C139.069 17.0753 140.191 17.346 141.447 17.346C143.477 17.346 145.179 16.5437 146.551 14.939L149.567 17.723C148.601 18.9023 147.402 19.8013 145.971 20.42C144.541 21.0387 142.946 21.348 141.186 21.348ZM171.358 0.699999V21H166.66V12.677H157.438V21H152.74V0.699999H157.438V8.704H166.66V0.699999H171.358ZM189.53 16.65H180.105L178.307 21H173.493L182.541 0.699999H187.181L196.258 21H191.328L189.53 16.65ZM188.051 13.083L184.832 5.311L181.613 13.083H188.051ZM216.982 0.699999V21H213.125L203.004 8.675V21H198.364V0.699999H202.25L212.342 13.025V0.699999H216.982ZM231.5 21.348C229.431 21.348 227.556 20.9033 225.874 20.014C224.211 19.1053 222.897 17.8583 221.93 16.273C220.983 14.6683 220.509 12.8607 220.509 10.85C220.509 8.83933 220.983 7.04133 221.93 5.456C222.897 3.85133 224.211 2.60433 225.874 1.715C227.556 0.806333 229.441 0.352 231.529 0.352C233.288 0.352 234.874 0.661333 236.285 1.28C237.716 1.89867 238.914 2.788 239.881 3.948L236.865 6.732C235.492 5.14667 233.791 4.354 231.761 4.354C230.504 4.354 229.383 4.63433 228.397 5.195C227.411 5.73633 226.638 6.5 226.077 7.486C225.536 8.472 225.265 9.59333 225.265 10.85C225.265 12.1067 225.536 13.228 226.077 14.214C226.638 15.2 227.411 15.9733 228.397 16.534C229.383 17.0753 230.504 17.346 231.761 17.346C233.791 17.346 235.492 16.5437 236.865 14.939L239.881 17.723C238.914 18.9023 237.716 19.8013 236.285 20.42C234.854 21.0387 233.259 21.348 231.5 21.348ZM258.771 17.23V21H243.053V0.699999H258.394V4.47H247.722V8.878H257.147V12.532H247.722V17.23H258.771ZM262.51 0.699999H267.208V17.172H277.387V21H262.51V0.699999ZM280.011 0.699999H284.709V17.172H294.888V21H280.011V0.699999ZM307.005 21.348C304.897 21.348 302.993 20.8937 301.292 19.985C299.61 19.0763 298.285 17.8293 297.319 16.244C296.371 14.6393 295.898 12.8413 295.898 10.85C295.898 8.85867 296.371 7.07033 297.319 5.485C298.285 3.88033 299.61 2.62367 301.292 1.715C302.993 0.806333 304.897 0.352 307.005 0.352C309.112 0.352 311.007 0.806333 312.689 1.715C314.371 2.62367 315.695 3.88033 316.662 5.485C317.628 7.07033 318.112 8.85867 318.112 10.85C318.112 12.8413 317.628 14.6393 316.662 16.244C315.695 17.8293 314.371 19.0763 312.689 19.985C311.007 20.8937 309.112 21.348 307.005 21.348ZM307.005 17.346C308.203 17.346 309.286 17.0753 310.253 16.534C311.219 15.9733 311.973 15.2 312.515 14.214C313.075 13.228 313.356 12.1067 313.356 10.85C313.356 9.59333 313.075 8.472 312.515 7.486C311.973 6.5 311.219 5.73633 310.253 5.195C309.286 4.63433 308.203 4.354 307.005 4.354C305.806 4.354 304.723 4.63433 303.757 5.195C302.79 5.73633 302.026 6.5 301.466 7.486C300.924 8.472 300.654 9.59333 300.654 10.85C300.654 12.1067 300.924 13.228 301.466 14.214C302.026 15.2 302.79 15.9733 303.757 16.534C304.723 17.0753 305.806 17.346 307.005 17.346ZM334.576 21L330.661 15.345H330.429H326.34V21H321.642V0.699999H330.429C332.227 0.699999 333.784 0.999665 335.098 1.599C336.432 2.19833 337.457 3.049 338.172 4.151C338.888 5.253 339.245 6.558 339.245 8.066C339.245 9.574 338.878 10.879 338.143 11.981C337.428 13.0637 336.403 13.895 335.069 14.475L339.622 21H334.576ZM334.489 8.066C334.489 6.92533 334.122 6.05533 333.387 5.456C332.653 4.83733 331.58 4.528 330.168 4.528H326.34V11.604H330.168C331.58 11.604 332.653 11.2947 333.387 10.676C334.122 10.0573 334.489 9.18733 334.489 8.066ZM341.982 0.699999H345.839L345.52 8.936H342.272L341.982 0.699999ZM356.321 21.348C354.716 21.348 353.16 21.1353 351.652 20.71C350.163 20.2653 348.965 19.695 348.056 18.999L349.651 15.461C350.521 16.099 351.555 16.6113 352.754 16.998C353.953 17.3847 355.151 17.578 356.35 17.578C357.684 17.578 358.67 17.3847 359.308 16.998C359.946 16.592 360.265 16.0603 360.265 15.403C360.265 14.9197 360.072 14.5233 359.685 14.214C359.318 13.8853 358.834 13.6243 358.235 13.431C357.655 13.2377 356.862 13.025 355.857 12.793C354.31 12.4257 353.044 12.0583 352.058 11.691C351.072 11.3237 350.221 10.734 349.506 9.922C348.81 9.11 348.462 8.02733 348.462 6.674C348.462 5.49467 348.781 4.43133 349.419 3.484C350.057 2.51733 351.014 1.75367 352.29 1.193C353.585 0.632333 355.161 0.352 357.017 0.352C358.312 0.352 359.579 0.506666 360.816 0.815999C362.053 1.12533 363.136 1.57 364.064 2.15L362.614 5.717C360.739 4.65367 358.863 4.122 356.988 4.122C355.673 4.122 354.697 4.33467 354.059 4.76C353.44 5.18533 353.131 5.746 353.131 6.442C353.131 7.138 353.489 7.66 354.204 8.008C354.939 8.33667 356.05 8.66533 357.539 8.994C359.086 9.36133 360.352 9.72867 361.338 10.096C362.324 10.4633 363.165 11.0433 363.861 11.836C364.576 12.6287 364.934 13.7017 364.934 15.055C364.934 16.215 364.605 17.2783 363.948 18.245C363.31 19.1923 362.343 19.9463 361.048 20.507C359.753 21.0677 358.177 21.348 356.321 21.348ZM10.077 53.348C8.47233 53.348 6.916 53.1353 5.408 52.71C3.91933 52.2653 2.72067 51.695 1.812 50.999L3.407 47.461C4.277 48.099 5.31133 48.6113 6.51 48.998C7.70867 49.3847 8.90733 49.578 10.106 49.578C11.44 49.578 12.426 49.3847 13.064 48.998C13.702 48.592 14.021 48.0603 14.021 47.403C14.021 46.9197 13.8277 46.5233 13.441 46.214C13.0737 45.8853 12.5903 45.6243 11.991 45.431C11.411 45.2377 10.6183 45.025 9.613 44.793C8.06633 44.4257 6.8 44.0583 5.814 43.691C4.828 43.3237 3.97733 42.734 3.262 41.922C2.566 41.11 2.218 40.0273 2.218 38.674C2.218 37.4947 2.537 36.4313 3.175 35.484C3.813 34.5173 4.77 33.7537 6.046 33.193C7.34133 32.6323 8.917 32.352 10.773 32.352C12.0683 32.352 13.3347 32.5067 14.572 32.816C15.8093 33.1253 16.892 33.57 17.82 34.15L16.37 37.717C14.4947 36.6537 12.6193 36.122 10.744 36.122C9.42933 36.122 8.453 36.3347 7.815 36.76C7.19633 37.1853 6.887 37.746 6.887 38.442C6.887 39.138 7.24467 39.66 7.96 40.008C8.69467 40.3367 9.80633 40.6653 11.295 40.994C12.8417 41.3613 14.108 41.7287 15.094 42.096C16.08 42.4633 16.921 43.0433 17.617 43.836C18.3323 44.6287 18.69 45.7017 18.69 47.055C18.69 48.215 18.3613 49.2783 17.704 50.245C17.066 51.1923 16.0993 51.9463 14.804 52.507C13.5087 53.0677 11.933 53.348 10.077 53.348ZM31.6152 53.348C29.5465 53.348 27.6712 52.9033 25.9892 52.014C24.3265 51.1053 23.0118 49.8583 22.0452 48.273C21.0978 46.6683 20.6242 44.8607 20.6242 42.85C20.6242 40.8393 21.0978 39.0413 22.0452 37.456C23.0118 35.8513 24.3265 34.6043 25.9892 33.715C27.6712 32.8063 29.5562 32.352 31.6442 32.352C33.4035 32.352 34.9888 32.6613 36.4002 33.28C37.8308 33.8987 39.0295 34.788 39.9962 35.948L36.9802 38.732C35.6075 37.1467 33.9062 36.354 31.8762 36.354C30.6195 36.354 29.4982 36.6343 28.5122 37.195C27.5262 37.7363 26.7528 38.5 26.1922 39.486C25.6508 40.472 25.3802 41.5933 25.3802 42.85C25.3802 44.1067 25.6508 45.228 26.1922 46.214C26.7528 47.2 27.5262 47.9733 28.5122 48.534C29.4982 49.0753 30.6195 49.346 31.8762 49.346C33.9062 49.346 35.6075 48.5437 36.9802 46.939L39.9962 49.723C39.0295 50.9023 37.8308 51.8013 36.4002 52.42C34.9695 53.0387 33.3745 53.348 31.6152 53.348ZM61.7867 32.7V53H57.0887V44.677H47.8667V53H43.1687V32.7H47.8667V40.704H57.0887V32.7H61.7867ZM76.4206 53.348C74.3133 53.348 72.409 52.8937 70.7076 51.985C69.0256 51.0763 67.7013 49.8293 66.7346 48.244C65.7873 46.6393 65.3136 44.8413 65.3136 42.85C65.3136 40.8587 65.7873 39.0703 66.7346 37.485C67.7013 35.8803 69.0256 34.6237 70.7076 33.715C72.409 32.8063 74.3133 32.352 76.4206 32.352C78.528 32.352 80.4226 32.8063 82.1046 33.715C83.7866 34.6237 85.111 35.8803 86.0776 37.485C87.0443 39.0703 87.5276 40.8587 87.5276 42.85C87.5276 44.8413 87.0443 46.6393 86.0776 48.244C85.111 49.8293 83.7866 51.0763 82.1046 51.985C80.4226 52.8937 78.528 53.348 76.4206 53.348ZM76.4206 49.346C77.6193 49.346 78.702 49.0753 79.6686 48.534C80.6353 47.9733 81.3893 47.2 81.9306 46.214C82.4913 45.228 82.7716 44.1067 82.7716 42.85C82.7716 41.5933 82.4913 40.472 81.9306 39.486C81.3893 38.5 80.6353 37.7363 79.6686 37.195C78.702 36.6343 77.6193 36.354 76.4206 36.354C75.222 36.354 74.1393 36.6343 73.1726 37.195C72.206 37.7363 71.4423 38.5 70.8816 39.486C70.3403 40.472 70.0696 41.5933 70.0696 42.85C70.0696 44.1067 70.3403 45.228 70.8816 46.214C71.4423 47.2 72.206 47.9733 73.1726 48.534C74.1393 49.0753 75.222 49.346 76.4206 49.346ZM91.0584 32.7H95.7564V49.172H105.935V53H91.0584V32.7ZM122.099 48.65H112.674L110.876 53H106.062L115.11 32.7H119.75L128.827 53H123.897L122.099 48.65ZM120.62 45.083L117.401 37.311L114.182 45.083H120.62ZM143.867 53L139.952 47.345H139.72H135.631V53H130.933V32.7H139.72C141.518 32.7 143.075 32.9997 144.389 33.599C145.723 34.1983 146.748 35.049 147.463 36.151C148.179 37.253 148.536 38.558 148.536 40.066C148.536 41.574 148.169 42.879 147.434 43.981C146.719 45.0637 145.694 45.895 144.36 46.475L148.913 53H143.867ZM143.78 40.066C143.78 38.9253 143.413 38.0553 142.678 37.456C141.944 36.8373 140.871 36.528 139.459 36.528H135.631V43.604H139.459C140.871 43.604 141.944 43.2947 142.678 42.676C143.413 42.0573 143.78 41.1873 143.78 40.066ZM158.929 53.348C157.324 53.348 155.768 53.1353 154.26 52.71C152.771 52.2653 151.572 51.695 150.664 50.999L152.259 47.461C153.129 48.099 154.163 48.6113 155.362 48.998C156.56 49.3847 157.759 49.578 158.958 49.578C160.292 49.578 161.278 49.3847 161.916 48.998C162.554 48.592 162.873 48.0603 162.873 47.403C162.873 46.9197 162.679 46.5233 162.293 46.214C161.925 45.8853 161.442 45.6243 160.843 45.431C160.263 45.2377 159.47 45.025 158.465 44.793C156.918 44.4257 155.652 44.0583 154.666 43.691C153.68 43.3237 152.829 42.734 152.114 41.922C151.418 41.11 151.07 40.0273 151.07 38.674C151.07 37.4947 151.389 36.4313 152.027 35.484C152.665 34.5173 153.622 33.7537 154.898 33.193C156.193 32.6323 157.769 32.352 159.625 32.352C160.92 32.352 162.186 32.5067 163.424 32.816C164.661 33.1253 165.744 33.57 166.672 34.15L165.222 37.717C163.346 36.6537 161.471 36.122 159.596 36.122C158.281 36.122 157.305 36.3347 156.667 36.76C156.048 37.1853 155.739 37.746 155.739 38.442C155.739 39.138 156.096 39.66 156.812 40.008C157.546 40.3367 158.658 40.6653 160.147 40.994C161.693 41.3613 162.96 41.7287 163.946 42.096C164.932 42.4633 165.773 43.0433 166.469 43.836C167.184 44.6287 167.542 45.7017 167.542 47.055C167.542 48.215 167.213 49.2783 166.556 50.245C165.918 51.1923 164.951 51.9463 163.656 52.507C162.36 53.0677 160.785 53.348 158.929 53.348ZM189.37 32.7V53H184.672V44.677H175.45V53H170.752V32.7H175.45V40.704H184.672V32.7H189.37ZM194.173 32.7H198.871V53H194.173V32.7ZM212.475 32.7C214.273 32.7 215.83 32.9997 217.144 33.599C218.478 34.1983 219.503 35.049 220.218 36.151C220.934 37.253 221.291 38.558 221.291 40.066C221.291 41.5547 220.934 42.8597 220.218 43.981C219.503 45.083 218.478 45.9337 217.144 46.533C215.83 47.113 214.273 47.403 212.475 47.403H208.386V53H203.688V32.7H212.475ZM212.214 43.575C213.626 43.575 214.699 43.2753 215.433 42.676C216.168 42.0573 216.535 41.1873 216.535 40.066C216.535 38.9253 216.168 38.0553 215.433 37.456C214.699 36.8373 213.626 36.528 212.214 36.528H208.386V43.575H212.214Z" fill="#4D4D4D"/>
</svg>
