<svg width="262" height="47" viewBox="0 0 262 47" fill="none" xmlns="http://www.w3.org/2000/svg">
<g filter="url(#filter0_d)">
<path d="M19.589 38.636C16.6563 38.636 13.812 38.2473 11.056 37.47C8.33533 36.6573 6.14467 35.615 4.484 34.343L7.399 27.877C8.989 29.043 10.8793 29.9793 13.07 30.686C15.2607 31.3927 17.4513 31.746 19.642 31.746C22.08 31.746 23.882 31.3927 25.048 30.686C26.214 29.944 26.797 28.9723 26.797 27.771C26.797 26.8877 26.4437 26.1633 25.737 25.598C25.0657 24.9973 24.1823 24.5203 23.087 24.167C22.027 23.8137 20.5783 23.425 18.741 23.001C15.9143 22.3297 13.6 21.6583 11.798 20.987C9.996 20.3157 8.44133 19.238 7.134 17.754C5.862 16.27 5.226 14.2913 5.226 11.818C5.226 9.66267 5.809 7.71933 6.975 5.988C8.141 4.22133 9.89 2.82566 12.222 1.801C14.5893 0.776332 17.469 0.263999 20.861 0.263999C23.2283 0.263999 25.5427 0.546666 27.804 1.112C30.0653 1.67733 32.044 2.49 33.74 3.55L31.09 10.069C27.6627 8.12567 24.2353 7.154 20.808 7.154C18.4053 7.154 16.621 7.54267 15.455 8.32C14.3243 9.09733 13.759 10.122 13.759 11.394C13.759 12.666 14.4127 13.62 15.72 14.256C17.0627 14.8567 19.0943 15.4573 21.815 16.058C24.6417 16.7293 26.956 17.4007 28.758 18.072C30.56 18.7433 32.097 19.8033 33.369 21.252C34.6763 22.7007 35.33 24.6617 35.33 27.135C35.33 29.255 34.7293 31.1983 33.528 32.965C32.362 34.6963 30.5953 36.0743 28.228 37.099C25.8607 38.1237 22.981 38.636 19.589 38.636ZM57.6799 38.636C52.3799 38.636 48.2459 37.1697 45.2779 34.237C42.3452 31.3043 40.8789 27.1173 40.8789 21.676V0.899997H49.4649V21.358C49.4649 28.0007 52.2209 31.322 57.7329 31.322C60.4182 31.322 62.4675 30.527 63.8809 28.937C65.2942 27.3117 66.0009 24.7853 66.0009 21.358V0.899997H74.4809V21.676C74.4809 27.1173 72.9969 31.3043 70.0289 34.237C67.0962 37.1697 62.9799 38.636 57.6799 38.636ZM100.72 38.636C96.9397 38.636 93.5124 37.8233 90.4384 36.198C87.3997 34.5373 84.9971 32.2583 83.2304 29.361C81.4991 26.4283 80.6334 23.1247 80.6334 19.45C80.6334 15.7753 81.4991 12.4893 83.2304 9.592C84.9971 6.65933 87.3997 4.38033 90.4384 2.755C93.5124 1.09433 96.9574 0.263999 100.773 0.263999C103.989 0.263999 106.886 0.829333 109.465 1.96C112.08 3.09067 114.271 4.716 116.037 6.836L110.525 11.924C108.017 9.02667 104.907 7.578 101.197 7.578C98.9007 7.578 96.8514 8.09033 95.0494 9.115C93.2474 10.1043 91.8341 11.5 90.8094 13.302C89.8201 15.104 89.3254 17.1533 89.3254 19.45C89.3254 21.7467 89.8201 23.796 90.8094 25.598C91.8341 27.4 93.2474 28.8133 95.0494 29.838C96.8514 30.8273 98.9007 31.322 101.197 31.322C104.907 31.322 108.017 29.8557 110.525 26.923L116.037 32.011C114.271 34.1663 112.08 35.8093 109.465 36.94C106.851 38.0707 103.936 38.636 100.72 38.636ZM138.814 38.636C135.033 38.636 131.606 37.8233 128.532 36.198C125.493 34.5373 123.091 32.2583 121.324 29.361C119.593 26.4283 118.727 23.1247 118.727 19.45C118.727 15.7753 119.593 12.4893 121.324 9.592C123.091 6.65933 125.493 4.38033 128.532 2.755C131.606 1.09433 135.051 0.263999 138.867 0.263999C142.082 0.263999 144.98 0.829333 147.559 1.96C150.174 3.09067 152.364 4.716 154.131 6.836L148.619 11.924C146.11 9.02667 143.001 7.578 139.291 7.578C136.994 7.578 134.945 8.09033 133.143 9.115C131.341 10.1043 129.928 11.5 128.903 13.302C127.914 15.104 127.419 17.1533 127.419 19.45C127.419 21.7467 127.914 23.796 128.903 25.598C129.928 27.4 131.341 28.8133 133.143 29.838C134.945 30.8273 136.994 31.322 139.291 31.322C143.001 31.322 146.11 29.8557 148.619 26.923L154.131 32.011C152.364 34.1663 150.174 35.8093 147.559 36.94C144.944 38.0707 142.029 38.636 138.814 38.636ZM188.655 31.11V38H159.929V0.899997H187.966V7.79H168.462V15.846H185.687V22.524H168.462V31.11H188.655ZM207.677 38.636C204.744 38.636 201.9 38.2473 199.144 37.47C196.423 36.6573 194.233 35.615 192.572 34.343L195.487 27.877C197.077 29.043 198.967 29.9793 201.158 30.686C203.349 31.3927 205.539 31.746 207.73 31.746C210.168 31.746 211.97 31.3927 213.136 30.686C214.302 29.944 214.885 28.9723 214.885 27.771C214.885 26.8877 214.532 26.1633 213.825 25.598C213.154 24.9973 212.27 24.5203 211.175 24.167C210.115 23.8137 208.666 23.425 206.829 23.001C204.002 22.3297 201.688 21.6583 199.886 20.987C198.084 20.3157 196.529 19.238 195.222 17.754C193.95 16.27 193.314 14.2913 193.314 11.818C193.314 9.66267 193.897 7.71933 195.063 5.988C196.229 4.22133 197.978 2.82566 200.31 1.801C202.677 0.776332 205.557 0.263999 208.949 0.263999C211.316 0.263999 213.631 0.546666 215.892 1.112C218.153 1.67733 220.132 2.49 221.828 3.55L219.178 10.069C215.751 8.12567 212.323 7.154 208.896 7.154C206.493 7.154 204.709 7.54267 203.543 8.32C202.412 9.09733 201.847 10.122 201.847 11.394C201.847 12.666 202.501 13.62 203.808 14.256C205.151 14.8567 207.182 15.4573 209.903 16.058C212.73 16.7293 215.044 17.4007 216.846 18.072C218.648 18.7433 220.185 19.8033 221.457 21.252C222.764 22.7007 223.418 24.6617 223.418 27.135C223.418 29.255 222.817 31.1983 221.616 32.965C220.45 34.6963 218.683 36.0743 216.316 37.099C213.949 38.1237 211.069 38.636 207.677 38.636ZM241.475 38.636C238.542 38.636 235.698 38.2473 232.942 37.47C230.221 36.6573 228.03 35.615 226.37 34.343L229.285 27.877C230.875 29.043 232.765 29.9793 234.956 30.686C237.146 31.3927 239.337 31.746 241.528 31.746C243.966 31.746 245.768 31.3927 246.934 30.686C248.1 29.944 248.683 28.9723 248.683 27.771C248.683 26.8877 248.329 26.1633 247.623 25.598C246.951 24.9973 246.068 24.5203 244.973 24.167C243.913 23.8137 242.464 23.425 240.627 23.001C237.8 22.3297 235.486 21.6583 233.684 20.987C231.882 20.3157 230.327 19.238 229.02 17.754C227.748 16.27 227.112 14.2913 227.112 11.818C227.112 9.66267 227.695 7.71933 228.861 5.988C230.027 4.22133 231.776 2.82566 234.108 1.801C236.475 0.776332 239.355 0.263999 242.747 0.263999C245.114 0.263999 247.428 0.546666 249.69 1.112C251.951 1.67733 253.93 2.49 255.626 3.55L252.976 10.069C249.548 8.12567 246.121 7.154 242.694 7.154C240.291 7.154 238.507 7.54267 237.341 8.32C236.21 9.09733 235.645 10.122 235.645 11.394C235.645 12.666 236.298 13.62 237.606 14.256C238.948 14.8567 240.98 15.4573 243.701 16.058C246.527 16.7293 248.842 17.4007 250.644 18.072C252.446 18.7433 253.983 19.8033 255.255 21.252C256.562 22.7007 257.216 24.6617 257.216 27.135C257.216 29.255 256.615 31.1983 255.414 32.965C254.248 34.6963 252.481 36.0743 250.114 37.099C247.746 38.1237 244.867 38.636 241.475 38.636Z" fill="url(#paint0_linear)"/>
</g>
<defs>
<filter id="filter0_d" x="0.484009" y="0.263916" width="260.732" height="46.372" filterUnits="userSpaceOnUse" color-interpolation-filters="sRGB">
<feFlood flood-opacity="0" result="BackgroundImageFix"/>
<feColorMatrix in="SourceAlpha" type="matrix" values="0 0 0 0 0 0 0 0 0 0 0 0 0 0 0 0 0 0 127 0"/>
<feOffset dy="4"/>
<feGaussianBlur stdDeviation="2"/>
<feColorMatrix type="matrix" values="0 0 0 0 0 0 0 0 0 0 0 0 0 0 0 0 0 0 0.25 0"/>
<feBlend mode="normal" in2="BackgroundImageFix" result="effect1_dropShadow"/>
<feBlend mode="normal" in="SourceGraphic" in2="effect1_dropShadow" result="shape"/>
</filter>
<linearGradient id="paint0_linear" x1="14.3725" y1="37.7425" x2="233.646" y2="37.7425" gradientUnits="userSpaceOnUse">
<stop stop-color="#B10F56"/>
<stop offset="1" stop-color="#D00846"/>
</linearGradient>
</defs>
</svg>
