<svg width="418" height="79" viewBox="0 0 418 79" fill="none" xmlns="http://www.w3.org/2000/svg">
<path d="M2.03539 2.28V7.78H9.27539V9.06H2.03539V15H0.555391V0.999999H10.1554V2.28H2.03539ZM16.8601 15.1C15.8467 15.1 14.9334 14.8733 14.1201 14.42C13.3067 13.9533 12.6667 13.3133 12.2001 12.5C11.7334 11.6867 11.5001 10.7667 11.5001 9.74C11.5001 8.71333 11.7334 7.79333 12.2001 6.98C12.6667 6.16667 13.3067 5.53333 14.1201 5.08C14.9334 4.62667 15.8467 4.4 16.8601 4.4C17.8734 4.4 18.7867 4.62667 19.6001 5.08C20.4134 5.53333 21.0467 6.16667 21.5001 6.98C21.9667 7.79333 22.2001 8.71333 22.2001 9.74C22.2001 10.7667 21.9667 11.6867 21.5001 12.5C21.0467 13.3133 20.4134 13.9533 19.6001 14.42C18.7867 14.8733 17.8734 15.1 16.8601 15.1ZM16.8601 13.84C17.6067 13.84 18.2734 13.6733 18.8601 13.34C19.4601 12.9933 19.9267 12.5067 20.2601 11.88C20.5934 11.2533 20.7601 10.54 20.7601 9.74C20.7601 8.94 20.5934 8.22667 20.2601 7.6C19.9267 6.97333 19.4601 6.49333 18.8601 6.16C18.2734 5.81333 17.6067 5.64 16.8601 5.64C16.1134 5.64 15.4401 5.81333 14.8401 6.16C14.2534 6.49333 13.7867 6.97333 13.4401 7.6C13.1067 8.22667 12.9401 8.94 12.9401 9.74C12.9401 10.54 13.1067 11.2533 13.4401 11.88C13.7867 12.5067 14.2534 12.9933 14.8401 13.34C15.4401 13.6733 16.1134 13.84 16.8601 13.84ZM25.0991 0.159999H26.5191V15H25.0991V0.159999ZM30.4702 0.159999H31.8902V15H30.4702V0.159999ZM40.1413 15.1C39.128 15.1 38.2147 14.8733 37.4013 14.42C36.588 13.9533 35.948 13.3133 35.4813 12.5C35.0147 11.6867 34.7813 10.7667 34.7813 9.74C34.7813 8.71333 35.0147 7.79333 35.4813 6.98C35.948 6.16667 36.588 5.53333 37.4013 5.08C38.2147 4.62667 39.128 4.4 40.1413 4.4C41.1547 4.4 42.068 4.62667 42.8813 5.08C43.6947 5.53333 44.328 6.16667 44.7813 6.98C45.248 7.79333 45.4813 8.71333 45.4813 9.74C45.4813 10.7667 45.248 11.6867 44.7813 12.5C44.328 13.3133 43.6947 13.9533 42.8813 14.42C42.068 14.8733 41.1547 15.1 40.1413 15.1ZM40.1413 13.84C40.888 13.84 41.5547 13.6733 42.1413 13.34C42.7413 12.9933 43.208 12.5067 43.5413 11.88C43.8747 11.2533 44.0413 10.54 44.0413 9.74C44.0413 8.94 43.8747 8.22667 43.5413 7.6C43.208 6.97333 42.7413 6.49333 42.1413 6.16C41.5547 5.81333 40.888 5.64 40.1413 5.64C39.3947 5.64 38.7213 5.81333 38.1213 6.16C37.5347 6.49333 37.068 6.97333 36.7213 7.6C36.388 8.22667 36.2213 8.94 36.2213 9.74C36.2213 10.54 36.388 11.2533 36.7213 11.88C37.068 12.5067 37.5347 12.9933 38.1213 13.34C38.7213 13.6733 39.3947 13.84 40.1413 13.84ZM63.5274 4.48L59.5474 15H58.2074L54.8874 6.38L51.5674 15H50.2274L46.2674 4.48H47.6274L50.9274 13.42L54.3074 4.48H55.5274L58.8874 13.42L62.2274 4.48H63.5274ZM65.6655 4.48H67.0855V15H65.6655V4.48ZM66.3855 2.18C66.0922 2.18 65.8455 2.08 65.6455 1.88C65.4455 1.68 65.3455 1.44 65.3455 1.16C65.3455 0.893333 65.4455 0.659999 65.6455 0.459999C65.8455 0.259999 66.0922 0.159999 66.3855 0.159999C66.6789 0.159999 66.9255 0.259999 67.1255 0.459999C67.3255 0.646665 67.4255 0.873332 67.4255 1.14C67.4255 1.43333 67.3255 1.68 67.1255 1.88C66.9255 2.08 66.6789 2.18 66.3855 2.18ZM76.3966 4.4C77.7166 4.4 78.7633 4.78667 79.5366 5.56C80.3233 6.32 80.7166 7.43333 80.7166 8.9V15H79.2966V9.04C79.2966 7.94667 79.0233 7.11333 78.4766 6.54C77.93 5.96667 77.15 5.68 76.1366 5.68C75.0033 5.68 74.1033 6.02 73.4366 6.7C72.7833 7.36667 72.4566 8.29333 72.4566 9.48V15H71.0366V4.48H72.3966V6.42C72.7833 5.78 73.3166 5.28667 73.9966 4.94C74.69 4.58 75.49 4.4 76.3966 4.4ZM94.3509 4.48V13.72C94.3509 15.5067 93.9109 16.8267 93.0309 17.68C92.1642 18.5467 90.8509 18.98 89.0909 18.98C88.1175 18.98 87.1909 18.8333 86.3109 18.54C85.4442 18.26 84.7375 17.8667 84.1909 17.36L84.9109 16.28C85.4175 16.7333 86.0309 17.0867 86.7509 17.34C87.4842 17.5933 88.2509 17.72 89.0509 17.72C90.3842 17.72 91.3642 17.4067 91.9909 16.78C92.6175 16.1667 92.9309 15.2067 92.9309 13.9V12.56C92.4909 13.2267 91.9109 13.7333 91.1909 14.08C90.4842 14.4267 89.6975 14.6 88.8309 14.6C87.8442 14.6 86.9442 14.3867 86.1309 13.96C85.3309 13.52 84.6975 12.9133 84.2309 12.14C83.7775 11.3533 83.5509 10.4667 83.5509 9.48C83.5509 8.49333 83.7775 7.61333 84.2309 6.84C84.6975 6.06667 85.3309 5.46667 86.1309 5.04C86.9309 4.61333 87.8309 4.4 88.8309 4.4C89.7242 4.4 90.5309 4.58 91.2509 4.94C91.9709 5.3 92.5509 5.82 92.9909 6.5V4.48H94.3509ZM88.9709 13.34C89.7309 13.34 90.4175 13.18 91.0309 12.86C91.6442 12.5267 92.1175 12.0667 92.4509 11.48C92.7975 10.8933 92.9709 10.2267 92.9709 9.48C92.9709 8.73333 92.7975 8.07333 92.4509 7.5C92.1175 6.91333 91.6442 6.46 91.0309 6.14C90.4309 5.80667 89.7442 5.64 88.9709 5.64C88.2109 5.64 87.5242 5.8 86.9109 6.12C86.3109 6.44 85.8375 6.89333 85.4909 7.48C85.1575 8.06667 84.9909 8.73333 84.9909 9.48C84.9909 10.2267 85.1575 10.8933 85.4909 11.48C85.8375 12.0667 86.3109 12.5267 86.9109 12.86C87.5242 13.18 88.2109 13.34 88.9709 13.34ZM109.096 14.36C108.83 14.6 108.496 14.7867 108.096 14.92C107.71 15.04 107.303 15.1 106.876 15.1C105.89 15.1 105.13 14.8333 104.596 14.3C104.063 13.7667 103.796 13.0133 103.796 12.04V5.68H101.916V4.48H103.796V2.18H105.216V4.48H108.416V5.68H105.216V11.96C105.216 12.5867 105.37 13.0667 105.676 13.4C105.996 13.72 106.45 13.88 107.036 13.88C107.33 13.88 107.61 13.8333 107.876 13.74C108.156 13.6467 108.396 13.5133 108.596 13.34L109.096 14.36ZM117.041 4.4C118.361 4.4 119.408 4.78667 120.181 5.56C120.968 6.32 121.361 7.43333 121.361 8.9V15H119.941V9.04C119.941 7.94667 119.668 7.11333 119.121 6.54C118.575 5.96667 117.795 5.68 116.781 5.68C115.648 5.68 114.748 6.02 114.081 6.7C113.428 7.36667 113.101 8.29333 113.101 9.48V15H111.681V0.159999H113.101V6.32C113.488 5.70667 114.021 5.23333 114.701 4.9C115.381 4.56667 116.161 4.4 117.041 4.4ZM134.415 10.18H125.615C125.695 11.2733 126.115 12.16 126.875 12.84C127.635 13.5067 128.595 13.84 129.755 13.84C130.409 13.84 131.009 13.7267 131.555 13.5C132.102 13.26 132.575 12.9133 132.975 12.46L133.775 13.38C133.309 13.94 132.722 14.3667 132.015 14.66C131.322 14.9533 130.555 15.1 129.715 15.1C128.635 15.1 127.675 14.8733 126.835 14.42C126.009 13.9533 125.362 13.3133 124.895 12.5C124.429 11.6867 124.195 10.7667 124.195 9.74C124.195 8.71333 124.415 7.79333 124.855 6.98C125.309 6.16667 125.922 5.53333 126.695 5.08C127.482 4.62667 128.362 4.4 129.335 4.4C130.309 4.4 131.182 4.62667 131.955 5.08C132.729 5.53333 133.335 6.16667 133.775 6.98C134.215 7.78 134.435 8.7 134.435 9.74L134.415 10.18ZM129.335 5.62C128.322 5.62 127.469 5.94667 126.775 6.6C126.095 7.24 125.709 8.08 125.615 9.12H133.075C132.982 8.08 132.589 7.24 131.895 6.6C131.215 5.94667 130.362 5.62 129.335 5.62ZM140.146 15.1C139.292 15.1 138.472 14.98 137.686 14.74C136.912 14.4867 136.306 14.1733 135.866 13.8L136.506 12.68C136.946 13.0267 137.499 13.3133 138.166 13.54C138.832 13.7533 139.526 13.86 140.246 13.86C141.206 13.86 141.912 13.7133 142.366 13.42C142.832 13.1133 143.066 12.6867 143.066 12.14C143.066 11.7533 142.939 11.4533 142.686 11.24C142.432 11.0133 142.112 10.8467 141.726 10.74C141.339 10.62 140.826 10.5067 140.186 10.4C139.332 10.24 138.646 10.08 138.126 9.92C137.606 9.74667 137.159 9.46 136.786 9.06C136.426 8.66 136.246 8.10667 136.246 7.4C136.246 6.52 136.612 5.8 137.346 5.24C138.079 4.68 139.099 4.4 140.406 4.4C141.086 4.4 141.766 4.49333 142.446 4.68C143.126 4.85333 143.686 5.08667 144.126 5.38L143.506 6.52C142.639 5.92 141.606 5.62 140.406 5.62C139.499 5.62 138.812 5.78 138.346 6.1C137.892 6.42 137.666 6.84 137.666 7.36C137.666 7.76 137.792 8.08 138.046 8.32C138.312 8.56 138.639 8.74 139.026 8.86C139.412 8.96667 139.946 9.08 140.626 9.2C141.466 9.36 142.139 9.52 142.646 9.68C143.152 9.84 143.586 10.1133 143.946 10.5C144.306 10.8867 144.486 11.42 144.486 12.1C144.486 13.02 144.099 13.7533 143.326 14.3C142.566 14.8333 141.506 15.1 140.146 15.1ZM156.271 10.18H147.471C147.551 11.2733 147.971 12.16 148.731 12.84C149.491 13.5067 150.451 13.84 151.611 13.84C152.264 13.84 152.864 13.7267 153.411 13.5C153.958 13.26 154.431 12.9133 154.831 12.46L155.631 13.38C155.164 13.94 154.578 14.3667 153.871 14.66C153.178 14.9533 152.411 15.1 151.571 15.1C150.491 15.1 149.531 14.8733 148.691 14.42C147.864 13.9533 147.218 13.3133 146.751 12.5C146.284 11.6867 146.051 10.7667 146.051 9.74C146.051 8.71333 146.271 7.79333 146.711 6.98C147.164 6.16667 147.778 5.53333 148.551 5.08C149.338 4.62667 150.218 4.4 151.191 4.4C152.164 4.4 153.038 4.62667 153.811 5.08C154.584 5.53333 155.191 6.16667 155.631 6.98C156.071 7.78 156.291 8.7 156.291 9.74L156.271 10.18ZM151.191 5.62C150.178 5.62 149.324 5.94667 148.631 6.6C147.951 7.24 147.564 8.08 147.471 9.12H154.931C154.838 8.08 154.444 7.24 153.751 6.6C153.071 5.94667 152.218 5.62 151.191 5.62ZM167.236 15.1C166.382 15.1 165.562 14.98 164.776 14.74C164.002 14.4867 163.396 14.1733 162.956 13.8L163.596 12.68C164.036 13.0267 164.589 13.3133 165.256 13.54C165.922 13.7533 166.616 13.86 167.336 13.86C168.296 13.86 169.002 13.7133 169.456 13.42C169.922 13.1133 170.156 12.6867 170.156 12.14C170.156 11.7533 170.029 11.4533 169.776 11.24C169.522 11.0133 169.202 10.8467 168.816 10.74C168.429 10.62 167.916 10.5067 167.276 10.4C166.422 10.24 165.736 10.08 165.216 9.92C164.696 9.74667 164.249 9.46 163.876 9.06C163.516 8.66 163.336 8.10667 163.336 7.4C163.336 6.52 163.702 5.8 164.436 5.24C165.169 4.68 166.189 4.4 167.496 4.4C168.176 4.4 168.856 4.49333 169.536 4.68C170.216 4.85333 170.776 5.08667 171.216 5.38L170.596 6.52C169.729 5.92 168.696 5.62 167.496 5.62C166.589 5.62 165.902 5.78 165.436 6.1C164.982 6.42 164.756 6.84 164.756 7.36C164.756 7.76 164.882 8.08 165.136 8.32C165.402 8.56 165.729 8.74 166.116 8.86C166.502 8.96667 167.036 9.08 167.716 9.2C168.556 9.36 169.229 9.52 169.736 9.68C170.242 9.84 170.676 10.1133 171.036 10.5C171.396 10.8867 171.576 11.42 171.576 12.1C171.576 13.02 171.189 13.7533 170.416 14.3C169.656 14.8333 168.596 15.1 167.236 15.1ZM179.741 14.36C179.474 14.6 179.141 14.7867 178.741 14.92C178.354 15.04 177.947 15.1 177.521 15.1C176.534 15.1 175.774 14.8333 175.241 14.3C174.707 13.7667 174.441 13.0133 174.441 12.04V5.68H172.561V4.48H174.441V2.18H175.861V4.48H179.061V5.68H175.861V11.96C175.861 12.5867 176.014 13.0667 176.321 13.4C176.641 13.72 177.094 13.88 177.681 13.88C177.974 13.88 178.254 13.8333 178.521 13.74C178.801 13.6467 179.041 13.5133 179.241 13.34L179.741 14.36ZM191.115 10.18H182.315C182.395 11.2733 182.815 12.16 183.575 12.84C184.335 13.5067 185.295 13.84 186.455 13.84C187.108 13.84 187.708 13.7267 188.255 13.5C188.801 13.26 189.275 12.9133 189.675 12.46L190.475 13.38C190.008 13.94 189.421 14.3667 188.715 14.66C188.021 14.9533 187.255 15.1 186.415 15.1C185.335 15.1 184.375 14.8733 183.535 14.42C182.708 13.9533 182.061 13.3133 181.595 12.5C181.128 11.6867 180.895 10.7667 180.895 9.74C180.895 8.71333 181.115 7.79333 181.555 6.98C182.008 6.16667 182.621 5.53333 183.395 5.08C184.181 4.62667 185.061 4.4 186.035 4.4C187.008 4.4 187.881 4.62667 188.655 5.08C189.428 5.53333 190.035 6.16667 190.475 6.98C190.915 7.78 191.135 8.7 191.135 9.74L191.115 10.18ZM186.035 5.62C185.021 5.62 184.168 5.94667 183.475 6.6C182.795 7.24 182.408 8.08 182.315 9.12H189.775C189.681 8.08 189.288 7.24 188.595 6.6C187.915 5.94667 187.061 5.62 186.035 5.62ZM199.445 4.4C200.432 4.4 201.325 4.62667 202.125 5.08C202.925 5.52 203.552 6.14667 204.005 6.96C204.458 7.77333 204.685 8.7 204.685 9.74C204.685 10.7933 204.458 11.7267 204.005 12.54C203.552 13.3533 202.925 13.9867 202.125 14.44C201.338 14.88 200.445 15.1 199.445 15.1C198.592 15.1 197.818 14.9267 197.125 14.58C196.445 14.22 195.885 13.7 195.445 13.02V18.88H194.025V4.48H195.385V6.56C195.812 5.86667 196.372 5.33333 197.065 4.96C197.772 4.58667 198.565 4.4 199.445 4.4ZM199.345 13.84C200.078 13.84 200.745 13.6733 201.345 13.34C201.945 12.9933 202.412 12.5067 202.745 11.88C203.092 11.2533 203.265 10.54 203.265 9.74C203.265 8.94 203.092 8.23333 202.745 7.62C202.412 6.99333 201.945 6.50667 201.345 6.16C200.745 5.81333 200.078 5.64 199.345 5.64C198.598 5.64 197.925 5.81333 197.325 6.16C196.738 6.50667 196.272 6.99333 195.925 7.62C195.592 8.23333 195.425 8.94 195.425 9.74C195.425 10.54 195.592 11.2533 195.925 11.88C196.272 12.5067 196.738 12.9933 197.325 13.34C197.925 13.6733 198.598 13.84 199.345 13.84ZM210.4 15.1C209.546 15.1 208.726 14.98 207.94 14.74C207.166 14.4867 206.56 14.1733 206.12 13.8L206.76 12.68C207.2 13.0267 207.753 13.3133 208.42 13.54C209.086 13.7533 209.78 13.86 210.5 13.86C211.46 13.86 212.166 13.7133 212.62 13.42C213.086 13.1133 213.32 12.6867 213.32 12.14C213.32 11.7533 213.193 11.4533 212.94 11.24C212.686 11.0133 212.366 10.8467 211.98 10.74C211.593 10.62 211.08 10.5067 210.44 10.4C209.586 10.24 208.9 10.08 208.38 9.92C207.86 9.74667 207.413 9.46 207.04 9.06C206.68 8.66 206.5 8.10667 206.5 7.4C206.5 6.52 206.866 5.8 207.6 5.24C208.333 4.68 209.353 4.4 210.66 4.4C211.34 4.4 212.02 4.49333 212.7 4.68C213.38 4.85333 213.94 5.08667 214.38 5.38L213.76 6.52C212.893 5.92 211.86 5.62 210.66 5.62C209.753 5.62 209.066 5.78 208.6 6.1C208.146 6.42 207.92 6.84 207.92 7.36C207.92 7.76 208.046 8.08 208.3 8.32C208.566 8.56 208.893 8.74 209.28 8.86C209.666 8.96667 210.2 9.08 210.88 9.2C211.72 9.36 212.393 9.52 212.9 9.68C213.406 9.84 213.84 10.1133 214.2 10.5C214.56 10.8867 214.74 11.42 214.74 12.1C214.74 13.02 214.353 13.7533 213.58 14.3C212.82 14.8333 211.76 15.1 210.4 15.1ZM226.959 15.1C225.919 15.1 224.986 14.8733 224.159 14.42C223.346 13.9667 222.706 13.3333 222.239 12.52C221.772 11.6933 221.539 10.7667 221.539 9.74C221.539 8.71333 221.772 7.79333 222.239 6.98C222.706 6.16667 223.346 5.53333 224.159 5.08C224.986 4.62667 225.919 4.4 226.959 4.4C227.866 4.4 228.672 4.58 229.379 4.94C230.099 5.28667 230.666 5.8 231.079 6.48L230.019 7.2C229.672 6.68 229.232 6.29333 228.699 6.04C228.166 5.77333 227.586 5.64 226.959 5.64C226.199 5.64 225.512 5.81333 224.899 6.16C224.299 6.49333 223.826 6.97333 223.479 7.6C223.146 8.22667 222.979 8.94 222.979 9.74C222.979 10.5533 223.146 11.2733 223.479 11.9C223.826 12.5133 224.299 12.9933 224.899 13.34C225.512 13.6733 226.199 13.84 226.959 13.84C227.586 13.84 228.166 13.7133 228.699 13.46C229.232 13.2067 229.672 12.82 230.019 12.3L231.079 13.02C230.666 13.7 230.099 14.22 229.379 14.58C228.659 14.9267 227.852 15.1 226.959 15.1ZM237.549 4.4C238.922 4.4 239.975 4.74667 240.709 5.44C241.442 6.12 241.809 7.13333 241.809 8.48V15H240.449V13.36C240.129 13.9067 239.655 14.3333 239.029 14.64C238.415 14.9467 237.682 15.1 236.829 15.1C235.655 15.1 234.722 14.82 234.029 14.26C233.335 13.7 232.989 12.96 232.989 12.04C232.989 11.1467 233.309 10.4267 233.949 9.88C234.602 9.33333 235.635 9.06 237.049 9.06H240.389V8.42C240.389 7.51333 240.135 6.82667 239.629 6.36C239.122 5.88 238.382 5.64 237.409 5.64C236.742 5.64 236.102 5.75333 235.489 5.98C234.875 6.19333 234.349 6.49333 233.909 6.88L233.269 5.82C233.802 5.36667 234.442 5.02 235.189 4.78C235.935 4.52667 236.722 4.4 237.549 4.4ZM237.049 13.98C237.849 13.98 238.535 13.8 239.109 13.44C239.682 13.0667 240.109 12.5333 240.389 11.84V10.12H237.089C235.289 10.12 234.389 10.7467 234.389 12C234.389 12.6133 234.622 13.1 235.089 13.46C235.555 13.8067 236.209 13.98 237.049 13.98ZM251.026 4.4C252.346 4.4 253.392 4.78667 254.166 5.56C254.952 6.32 255.346 7.43333 255.346 8.9V15H253.926V9.04C253.926 7.94667 253.652 7.11333 253.106 6.54C252.559 5.96667 251.779 5.68 250.766 5.68C249.632 5.68 248.732 6.02 248.066 6.7C247.412 7.36667 247.086 8.29333 247.086 9.48V15H245.666V4.48H247.026V6.42C247.412 5.78 247.946 5.28667 248.626 4.94C249.319 4.58 250.119 4.4 251.026 4.4ZM269.795 4.4C271.115 4.4 272.162 4.78667 272.935 5.56C273.722 6.32 274.115 7.43333 274.115 8.9V15H272.695V9.04C272.695 7.94667 272.422 7.11333 271.875 6.54C271.328 5.96667 270.548 5.68 269.535 5.68C268.402 5.68 267.502 6.02 266.835 6.7C266.182 7.36667 265.855 8.29333 265.855 9.48V15H264.435V0.159999H265.855V6.32C266.242 5.70667 266.775 5.23333 267.455 4.9C268.135 4.56667 268.915 4.4 269.795 4.4ZM287.169 10.18H278.369C278.449 11.2733 278.869 12.16 279.629 12.84C280.389 13.5067 281.349 13.84 282.509 13.84C283.163 13.84 283.763 13.7267 284.309 13.5C284.856 13.26 285.329 12.9133 285.729 12.46L286.529 13.38C286.063 13.94 285.476 14.3667 284.769 14.66C284.076 14.9533 283.309 15.1 282.469 15.1C281.389 15.1 280.429 14.8733 279.589 14.42C278.763 13.9533 278.116 13.3133 277.649 12.5C277.183 11.6867 276.949 10.7667 276.949 9.74C276.949 8.71333 277.169 7.79333 277.609 6.98C278.063 6.16667 278.676 5.53333 279.449 5.08C280.236 4.62667 281.116 4.4 282.089 4.4C283.063 4.4 283.936 4.62667 284.709 5.08C285.483 5.53333 286.089 6.16667 286.529 6.98C286.969 7.78 287.189 8.7 287.189 9.74L287.169 10.18ZM282.089 5.62C281.076 5.62 280.223 5.94667 279.529 6.6C278.849 7.24 278.463 8.08 278.369 9.12H285.829C285.736 8.08 285.343 7.24 284.649 6.6C283.969 5.94667 283.116 5.62 282.089 5.62ZM290.08 0.159999H291.5V15H290.08V0.159999ZM300.871 4.4C301.857 4.4 302.751 4.62667 303.551 5.08C304.351 5.52 304.977 6.14667 305.431 6.96C305.884 7.77333 306.111 8.7 306.111 9.74C306.111 10.7933 305.884 11.7267 305.431 12.54C304.977 13.3533 304.351 13.9867 303.551 14.44C302.764 14.88 301.871 15.1 300.871 15.1C300.017 15.1 299.244 14.9267 298.551 14.58C297.871 14.22 297.311 13.7 296.871 13.02V18.88H295.451V4.48H296.811V6.56C297.237 5.86667 297.797 5.33333 298.491 4.96C299.197 4.58667 299.991 4.4 300.871 4.4ZM300.771 13.84C301.504 13.84 302.171 13.6733 302.771 13.34C303.371 12.9933 303.837 12.5067 304.171 11.88C304.517 11.2533 304.691 10.54 304.691 9.74C304.691 8.94 304.517 8.23333 304.171 7.62C303.837 6.99333 303.371 6.50667 302.771 6.16C302.171 5.81333 301.504 5.64 300.771 5.64C300.024 5.64 299.351 5.81333 298.751 6.16C298.164 6.50667 297.697 6.99333 297.351 7.62C297.017 8.23333 296.851 8.94 296.851 9.74C296.851 10.54 297.017 11.2533 297.351 11.88C297.697 12.5067 298.164 12.9933 298.751 13.34C299.351 13.6733 300.024 13.84 300.771 13.84ZM327.36 4.4C328.68 4.4 329.713 4.78 330.46 5.54C331.22 6.3 331.6 7.42 331.6 8.9V15H330.18V9.04C330.18 7.94667 329.913 7.11333 329.38 6.54C328.86 5.96667 328.12 5.68 327.16 5.68C326.066 5.68 325.206 6.02 324.58 6.7C323.953 7.36667 323.64 8.29333 323.64 9.48V15H322.22V9.04C322.22 7.94667 321.953 7.11333 321.42 6.54C320.9 5.96667 320.153 5.68 319.18 5.68C318.1 5.68 317.24 6.02 316.6 6.7C315.973 7.36667 315.66 8.29333 315.66 9.48V15H314.24V4.48H315.6V6.4C315.973 5.76 316.493 5.26667 317.16 4.92C317.826 4.57333 318.593 4.4 319.46 4.4C320.34 4.4 321.1 4.58667 321.74 4.96C322.393 5.33333 322.88 5.88667 323.2 6.62C323.586 5.92667 324.14 5.38667 324.86 5C325.593 4.6 326.426 4.4 327.36 4.4ZM339.131 4.4C340.504 4.4 341.557 4.74667 342.291 5.44C343.024 6.12 343.391 7.13333 343.391 8.48V15H342.031V13.36C341.711 13.9067 341.237 14.3333 340.611 14.64C339.997 14.9467 339.264 15.1 338.411 15.1C337.237 15.1 336.304 14.82 335.611 14.26C334.917 13.7 334.571 12.96 334.571 12.04C334.571 11.1467 334.891 10.4267 335.531 9.88C336.184 9.33333 337.217 9.06 338.631 9.06H341.971V8.42C341.971 7.51333 341.717 6.82667 341.211 6.36C340.704 5.88 339.964 5.64 338.991 5.64C338.324 5.64 337.684 5.75333 337.071 5.98C336.457 6.19333 335.931 6.49333 335.491 6.88L334.851 5.82C335.384 5.36667 336.024 5.02 336.771 4.78C337.517 4.52667 338.304 4.4 339.131 4.4ZM338.631 13.98C339.431 13.98 340.117 13.8 340.691 13.44C341.264 13.0667 341.691 12.5333 341.971 11.84V10.12H338.671C336.871 10.12 335.971 10.7467 335.971 12C335.971 12.6133 336.204 13.1 336.671 13.46C337.137 13.8067 337.791 13.98 338.631 13.98ZM351.148 9.72L348.668 12V15H347.248V0.159999H348.668V10.22L354.948 4.48H356.708L352.208 8.78L357.128 15H355.388L351.148 9.72ZM367.99 10.18H359.19C359.27 11.2733 359.69 12.16 360.45 12.84C361.21 13.5067 362.17 13.84 363.33 13.84C363.983 13.84 364.583 13.7267 365.13 13.5C365.676 13.26 366.15 12.9133 366.55 12.46L367.35 13.38C366.883 13.94 366.296 14.3667 365.59 14.66C364.896 14.9533 364.13 15.1 363.29 15.1C362.21 15.1 361.25 14.8733 360.41 14.42C359.583 13.9533 358.936 13.3133 358.47 12.5C358.003 11.6867 357.77 10.7667 357.77 9.74C357.77 8.71333 357.99 7.79333 358.43 6.98C358.883 6.16667 359.496 5.53333 360.27 5.08C361.056 4.62667 361.936 4.4 362.91 4.4C363.883 4.4 364.756 4.62667 365.53 5.08C366.303 5.53333 366.91 6.16667 367.35 6.98C367.79 7.78 368.01 8.7 368.01 9.74L367.99 10.18ZM362.91 5.62C361.896 5.62 361.043 5.94667 360.35 6.6C359.67 7.24 359.283 8.08 359.19 9.12H366.65C366.556 8.08 366.163 7.24 365.47 6.6C364.79 5.94667 363.936 5.62 362.91 5.62ZM384.974 4.48L379.714 16.26C379.288 17.2467 378.794 17.9467 378.234 18.36C377.674 18.7733 377.001 18.98 376.214 18.98C375.708 18.98 375.234 18.9 374.794 18.74C374.354 18.58 373.974 18.34 373.654 18.02L374.314 16.96C374.848 17.4933 375.488 17.76 376.234 17.76C376.714 17.76 377.121 17.6267 377.454 17.36C377.801 17.0933 378.121 16.64 378.414 16L378.874 14.98L374.174 4.48H375.654L379.614 13.42L383.574 4.48H384.974ZM390.981 15.1C389.968 15.1 389.055 14.8733 388.241 14.42C387.428 13.9533 386.788 13.3133 386.321 12.5C385.855 11.6867 385.621 10.7667 385.621 9.74C385.621 8.71333 385.855 7.79333 386.321 6.98C386.788 6.16667 387.428 5.53333 388.241 5.08C389.055 4.62667 389.968 4.4 390.981 4.4C391.995 4.4 392.908 4.62667 393.721 5.08C394.535 5.53333 395.168 6.16667 395.621 6.98C396.088 7.79333 396.321 8.71333 396.321 9.74C396.321 10.7667 396.088 11.6867 395.621 12.5C395.168 13.3133 394.535 13.9533 393.721 14.42C392.908 14.8733 391.995 15.1 390.981 15.1ZM390.981 13.84C391.728 13.84 392.395 13.6733 392.981 13.34C393.581 12.9933 394.048 12.5067 394.381 11.88C394.715 11.2533 394.881 10.54 394.881 9.74C394.881 8.94 394.715 8.22667 394.381 7.6C394.048 6.97333 393.581 6.49333 392.981 6.16C392.395 5.81333 391.728 5.64 390.981 5.64C390.235 5.64 389.561 5.81333 388.961 6.16C388.375 6.49333 387.908 6.97333 387.561 7.6C387.228 8.22667 387.061 8.94 387.061 9.74C387.061 10.54 387.228 11.2533 387.561 11.88C387.908 12.5067 388.375 12.9933 388.961 13.34C389.561 13.6733 390.235 13.84 390.981 13.84ZM408.7 4.48V15H407.34V13.08C406.967 13.72 406.454 14.22 405.8 14.58C405.147 14.9267 404.4 15.1 403.56 15.1C402.187 15.1 401.1 14.72 400.3 13.96C399.514 13.1867 399.12 12.06 399.12 10.58V4.48H400.54V10.44C400.54 11.5467 400.814 12.3867 401.36 12.96C401.907 13.5333 402.687 13.82 403.7 13.82C404.807 13.82 405.68 13.4867 406.32 12.82C406.96 12.14 407.28 11.2 407.28 10V4.48H408.7ZM414.037 6.54C414.371 5.83333 414.864 5.3 415.517 4.94C416.184 4.58 417.004 4.4 417.977 4.4V5.78L417.637 5.76C416.531 5.76 415.664 6.1 415.037 6.78C414.411 7.46 414.097 8.41333 414.097 9.64V15H412.677V4.48H414.037V6.54ZM41.953 34.4C43.3263 34.4 44.3796 34.7467 45.113 35.44C45.8463 36.12 46.213 37.1333 46.213 38.48V45H44.853V43.36C44.533 43.9067 44.0596 44.3333 43.433 44.64C42.8196 44.9467 42.0863 45.1 41.233 45.1C40.0596 45.1 39.1263 44.82 38.433 44.26C37.7396 43.7 37.393 42.96 37.393 42.04C37.393 41.1467 37.713 40.4267 38.353 39.88C39.0063 39.3333 40.0396 39.06 41.453 39.06H44.793V38.42C44.793 37.5133 44.5396 36.8267 44.033 36.36C43.5263 35.88 42.7863 35.64 41.813 35.64C41.1463 35.64 40.5063 35.7533 39.893 35.98C39.2796 36.1933 38.753 36.4933 38.313 36.88L37.673 35.82C38.2063 35.3667 38.8463 35.02 39.593 34.78C40.3396 34.5267 41.1263 34.4 41.953 34.4ZM41.453 43.98C42.253 43.98 42.9396 43.8 43.513 43.44C44.0863 43.0667 44.513 42.5333 44.793 41.84V40.12H41.493C39.693 40.12 38.793 40.7467 38.793 42C38.793 42.6133 39.0263 43.1 39.493 43.46C39.9596 43.8067 40.613 43.98 41.453 43.98ZM55.4898 34.4C56.4765 34.4 57.3698 34.6267 58.1698 35.08C58.9698 35.52 59.5965 36.1467 60.0498 36.96C60.5032 37.7733 60.7298 38.7 60.7298 39.74C60.7298 40.7933 60.5032 41.7267 60.0498 42.54C59.5965 43.3533 58.9698 43.9867 58.1698 44.44C57.3832 44.88 56.4898 45.1 55.4898 45.1C54.6365 45.1 53.8632 44.9267 53.1698 44.58C52.4898 44.22 51.9298 43.7 51.4898 43.02V48.88H50.0698V34.48H51.4298V36.56C51.8565 35.8667 52.4165 35.3333 53.1098 34.96C53.8165 34.5867 54.6098 34.4 55.4898 34.4ZM55.3898 43.84C56.1232 43.84 56.7898 43.6733 57.3898 43.34C57.9898 42.9933 58.4565 42.5067 58.7898 41.88C59.1365 41.2533 59.3098 40.54 59.3098 39.74C59.3098 38.94 59.1365 38.2333 58.7898 37.62C58.4565 36.9933 57.9898 36.5067 57.3898 36.16C56.7898 35.8133 56.1232 35.64 55.3898 35.64C54.6432 35.64 53.9698 35.8133 53.3698 36.16C52.7832 36.5067 52.3165 36.9933 51.9698 37.62C51.6365 38.2333 51.4698 38.94 51.4698 39.74C51.4698 40.54 51.6365 41.2533 51.9698 41.88C52.3165 42.5067 52.7832 42.9933 53.3698 43.34C53.9698 43.6733 54.6432 43.84 55.3898 43.84ZM69.0445 34.4C70.0312 34.4 70.9245 34.6267 71.7245 35.08C72.5245 35.52 73.1512 36.1467 73.6045 36.96C74.0579 37.7733 74.2845 38.7 74.2845 39.74C74.2845 40.7933 74.0579 41.7267 73.6045 42.54C73.1512 43.3533 72.5245 43.9867 71.7245 44.44C70.9379 44.88 70.0445 45.1 69.0445 45.1C68.1912 45.1 67.4179 44.9267 66.7245 44.58C66.0445 44.22 65.4845 43.7 65.0445 43.02V48.88H63.6245V34.48H64.9845V36.56C65.4112 35.8667 65.9712 35.3333 66.6645 34.96C67.3712 34.5867 68.1645 34.4 69.0445 34.4ZM68.9445 43.84C69.6779 43.84 70.3445 43.6733 70.9445 43.34C71.5445 42.9933 72.0112 42.5067 72.3445 41.88C72.6912 41.2533 72.8645 40.54 72.8645 39.74C72.8645 38.94 72.6912 38.2333 72.3445 37.62C72.0112 36.9933 71.5445 36.5067 70.9445 36.16C70.3445 35.8133 69.6779 35.64 68.9445 35.64C68.1979 35.64 67.5245 35.8133 66.9245 36.16C66.3379 36.5067 65.8712 36.9933 65.5245 37.62C65.1912 38.2333 65.0245 38.94 65.0245 39.74C65.0245 40.54 65.1912 41.2533 65.5245 41.88C65.8712 42.5067 66.3379 42.9933 66.9245 43.34C67.5245 43.6733 68.1979 43.84 68.9445 43.84ZM77.1792 30.16H78.5992V45H77.1792V30.16ZM82.5503 34.48H83.9703V45H82.5503V34.48ZM83.2703 32.18C82.977 32.18 82.7303 32.08 82.5303 31.88C82.3303 31.68 82.2303 31.44 82.2303 31.16C82.2303 30.8933 82.3303 30.66 82.5303 30.46C82.7303 30.26 82.977 30.16 83.2703 30.16C83.5636 30.16 83.8103 30.26 84.0103 30.46C84.2103 30.6467 84.3103 30.8733 84.3103 31.14C84.3103 31.4333 84.2103 31.68 84.0103 31.88C83.8103 32.08 83.5636 32.18 83.2703 32.18ZM92.2814 45.1C91.2414 45.1 90.3081 44.8733 89.4814 44.42C88.6681 43.9667 88.0281 43.3333 87.5614 42.52C87.0947 41.6933 86.8614 40.7667 86.8614 39.74C86.8614 38.7133 87.0947 37.7933 87.5614 36.98C88.0281 36.1667 88.6681 35.5333 89.4814 35.08C90.3081 34.6267 91.2414 34.4 92.2814 34.4C93.1881 34.4 93.9947 34.58 94.7014 34.94C95.4214 35.2867 95.9881 35.8 96.4014 36.48L95.3414 37.2C94.9947 36.68 94.5547 36.2933 94.0214 36.04C93.4881 35.7733 92.9081 35.64 92.2814 35.64C91.5214 35.64 90.8347 35.8133 90.2214 36.16C89.6214 36.4933 89.1481 36.9733 88.8014 37.6C88.4681 38.2267 88.3014 38.94 88.3014 39.74C88.3014 40.5533 88.4681 41.2733 88.8014 41.9C89.1481 42.5133 89.6214 42.9933 90.2214 43.34C90.8347 43.6733 91.5214 43.84 92.2814 43.84C92.9081 43.84 93.4881 43.7133 94.0214 43.46C94.5547 43.2067 94.9947 42.82 95.3414 42.3L96.4014 43.02C95.9881 43.7 95.4214 44.22 94.7014 44.58C93.9814 44.9267 93.1747 45.1 92.2814 45.1ZM102.871 34.4C104.244 34.4 105.298 34.7467 106.031 35.44C106.764 36.12 107.131 37.1333 107.131 38.48V45H105.771V43.36C105.451 43.9067 104.978 44.3333 104.351 44.64C103.738 44.9467 103.004 45.1 102.151 45.1C100.978 45.1 100.044 44.82 99.3509 44.26C98.6576 43.7 98.3109 42.96 98.3109 42.04C98.3109 41.1467 98.6309 40.4267 99.2709 39.88C99.9243 39.3333 100.958 39.06 102.371 39.06H105.711V38.42C105.711 37.5133 105.458 36.8267 104.951 36.36C104.444 35.88 103.704 35.64 102.731 35.64C102.064 35.64 101.424 35.7533 100.811 35.98C100.198 36.1933 99.6709 36.4933 99.2309 36.88L98.5909 35.82C99.1243 35.3667 99.7643 35.02 100.511 34.78C101.258 34.5267 102.044 34.4 102.871 34.4ZM102.371 43.98C103.171 43.98 103.858 43.8 104.431 43.44C105.004 43.0667 105.431 42.5333 105.711 41.84V40.12H102.411C100.611 40.12 99.7109 40.7467 99.7109 42C99.7109 42.6133 99.9443 43.1 100.411 43.46C100.878 43.8067 101.531 43.98 102.371 43.98ZM116.528 44.36C116.261 44.6 115.928 44.7867 115.528 44.92C115.141 45.04 114.734 45.1 114.308 45.1C113.321 45.1 112.561 44.8333 112.028 44.3C111.494 43.7667 111.228 43.0133 111.228 42.04V35.68H109.348V34.48H111.228V32.18H112.648V34.48H115.848V35.68H112.648V41.96C112.648 42.5867 112.801 43.0667 113.108 43.4C113.428 43.72 113.881 43.88 114.468 43.88C114.761 43.88 115.041 43.8333 115.308 43.74C115.588 43.6467 115.828 43.5133 116.028 43.34L116.528 44.36ZM119.113 34.48H120.533V45H119.113V34.48ZM119.833 32.18C119.539 32.18 119.293 32.08 119.093 31.88C118.893 31.68 118.793 31.44 118.793 31.16C118.793 30.8933 118.893 30.66 119.093 30.46C119.293 30.26 119.539 30.16 119.833 30.16C120.126 30.16 120.373 30.26 120.573 30.46C120.773 30.6467 120.873 30.8733 120.873 31.14C120.873 31.4333 120.773 31.68 120.573 31.88C120.373 32.08 120.126 32.18 119.833 32.18ZM128.784 45.1C127.771 45.1 126.857 44.8733 126.044 44.42C125.231 43.9533 124.591 43.3133 124.124 42.5C123.657 41.6867 123.424 40.7667 123.424 39.74C123.424 38.7133 123.657 37.7933 124.124 36.98C124.591 36.1667 125.231 35.5333 126.044 35.08C126.857 34.6267 127.771 34.4 128.784 34.4C129.797 34.4 130.711 34.6267 131.524 35.08C132.337 35.5333 132.971 36.1667 133.424 36.98C133.891 37.7933 134.124 38.7133 134.124 39.74C134.124 40.7667 133.891 41.6867 133.424 42.5C132.971 43.3133 132.337 43.9533 131.524 44.42C130.711 44.8733 129.797 45.1 128.784 45.1ZM128.784 43.84C129.531 43.84 130.197 43.6733 130.784 43.34C131.384 42.9933 131.851 42.5067 132.184 41.88C132.517 41.2533 132.684 40.54 132.684 39.74C132.684 38.94 132.517 38.2267 132.184 37.6C131.851 36.9733 131.384 36.4933 130.784 36.16C130.197 35.8133 129.531 35.64 128.784 35.64C128.037 35.64 127.364 35.8133 126.764 36.16C126.177 36.4933 125.711 36.9733 125.364 37.6C125.031 38.2267 124.864 38.94 124.864 39.74C124.864 40.54 125.031 41.2533 125.364 41.88C125.711 42.5067 126.177 42.9933 126.764 43.34C127.364 43.6733 128.037 43.84 128.784 43.84ZM142.383 34.4C143.703 34.4 144.75 34.7867 145.523 35.56C146.31 36.32 146.703 37.4333 146.703 38.9V45H145.283V39.04C145.283 37.9467 145.01 37.1133 144.463 36.54C143.916 35.9667 143.136 35.68 142.123 35.68C140.99 35.68 140.09 36.02 139.423 36.7C138.77 37.3667 138.443 38.2933 138.443 39.48V45H137.023V34.48H138.383V36.42C138.77 35.78 139.303 35.2867 139.983 34.94C140.676 34.58 141.476 34.4 142.383 34.4ZM164.953 40.18H156.153C156.233 41.2733 156.653 42.16 157.413 42.84C158.173 43.5067 159.133 43.84 160.293 43.84C160.946 43.84 161.546 43.7267 162.093 43.5C162.639 43.26 163.113 42.9133 163.513 42.46L164.313 43.38C163.846 43.94 163.259 44.3667 162.553 44.66C161.859 44.9533 161.093 45.1 160.253 45.1C159.173 45.1 158.213 44.8733 157.373 44.42C156.546 43.9533 155.899 43.3133 155.433 42.5C154.966 41.6867 154.733 40.7667 154.733 39.74C154.733 38.7133 154.953 37.7933 155.393 36.98C155.846 36.1667 156.459 35.5333 157.233 35.08C158.019 34.6267 158.899 34.4 159.873 34.4C160.846 34.4 161.719 34.6267 162.493 35.08C163.266 35.5333 163.873 36.1667 164.313 36.98C164.753 37.78 164.973 38.7 164.973 39.74L164.953 40.18ZM159.873 35.62C158.859 35.62 158.006 35.9467 157.313 36.6C156.633 37.24 156.246 38.08 156.153 39.12H163.613C163.519 38.08 163.126 37.24 162.433 36.6C161.753 35.9467 160.899 35.62 159.873 35.62ZM174.27 45L170.93 40.6L167.57 45H165.97L170.13 39.6L166.17 34.48H167.77L170.93 38.6L174.09 34.48H175.65L171.69 39.6L175.89 45H174.27ZM183.673 34.4C184.66 34.4 185.553 34.6267 186.353 35.08C187.153 35.52 187.78 36.1467 188.233 36.96C188.687 37.7733 188.913 38.7 188.913 39.74C188.913 40.7933 188.687 41.7267 188.233 42.54C187.78 43.3533 187.153 43.9867 186.353 44.44C185.567 44.88 184.673 45.1 183.673 45.1C182.82 45.1 182.047 44.9267 181.353 44.58C180.673 44.22 180.113 43.7 179.673 43.02V48.88H178.253V34.48H179.613V36.56C180.04 35.8667 180.6 35.3333 181.293 34.96C182 34.5867 182.793 34.4 183.673 34.4ZM183.573 43.84C184.307 43.84 184.973 43.6733 185.573 43.34C186.173 42.9933 186.64 42.5067 186.973 41.88C187.32 41.2533 187.493 40.54 187.493 39.74C187.493 38.94 187.32 38.2333 186.973 37.62C186.64 36.9933 186.173 36.5067 185.573 36.16C184.973 35.8133 184.307 35.64 183.573 35.64C182.827 35.64 182.153 35.8133 181.553 36.16C180.967 36.5067 180.5 36.9933 180.153 37.62C179.82 38.2333 179.653 38.94 179.653 39.74C179.653 40.54 179.82 41.2533 180.153 41.88C180.5 42.5067 180.967 42.9933 181.553 43.34C182.153 43.6733 182.827 43.84 183.573 43.84ZM200.968 40.18H192.168C192.248 41.2733 192.668 42.16 193.428 42.84C194.188 43.5067 195.148 43.84 196.308 43.84C196.961 43.84 197.561 43.7267 198.108 43.5C198.655 43.26 199.128 42.9133 199.528 42.46L200.328 43.38C199.861 43.94 199.275 44.3667 198.568 44.66C197.875 44.9533 197.108 45.1 196.268 45.1C195.188 45.1 194.228 44.8733 193.388 44.42C192.561 43.9533 191.915 43.3133 191.448 42.5C190.981 41.6867 190.748 40.7667 190.748 39.74C190.748 38.7133 190.968 37.7933 191.408 36.98C191.861 36.1667 192.475 35.5333 193.248 35.08C194.035 34.6267 194.915 34.4 195.888 34.4C196.861 34.4 197.735 34.6267 198.508 35.08C199.281 35.5333 199.888 36.1667 200.328 36.98C200.768 37.78 200.988 38.7 200.988 39.74L200.968 40.18ZM195.888 35.62C194.875 35.62 194.021 35.9467 193.328 36.6C192.648 37.24 192.261 38.08 192.168 39.12H199.628C199.535 38.08 199.141 37.24 198.448 36.6C197.768 35.9467 196.915 35.62 195.888 35.62ZM205.238 36.54C205.572 35.8333 206.065 35.3 206.718 34.94C207.385 34.58 208.205 34.4 209.178 34.4V35.78L208.838 35.76C207.732 35.76 206.865 36.1 206.238 36.78C205.612 37.46 205.298 38.4133 205.298 39.64V45H203.878V34.48H205.238V36.54ZM211.75 34.48H213.17V45H211.75V34.48ZM212.47 32.18C212.176 32.18 211.93 32.08 211.73 31.88C211.53 31.68 211.43 31.44 211.43 31.16C211.43 30.8933 211.53 30.66 211.73 30.46C211.93 30.26 212.176 30.16 212.47 30.16C212.763 30.16 213.01 30.26 213.21 30.46C213.41 30.6467 213.51 30.8733 213.51 31.14C213.51 31.4333 213.41 31.68 213.21 31.88C213.01 32.08 212.763 32.18 212.47 32.18ZM226.281 40.18H217.481C217.561 41.2733 217.981 42.16 218.741 42.84C219.501 43.5067 220.461 43.84 221.621 43.84C222.274 43.84 222.874 43.7267 223.421 43.5C223.967 43.26 224.441 42.9133 224.841 42.46L225.641 43.38C225.174 43.94 224.587 44.3667 223.881 44.66C223.187 44.9533 222.421 45.1 221.581 45.1C220.501 45.1 219.541 44.8733 218.701 44.42C217.874 43.9533 217.227 43.3133 216.761 42.5C216.294 41.6867 216.061 40.7667 216.061 39.74C216.061 38.7133 216.281 37.7933 216.721 36.98C217.174 36.1667 217.787 35.5333 218.561 35.08C219.347 34.6267 220.227 34.4 221.201 34.4C222.174 34.4 223.047 34.6267 223.821 35.08C224.594 35.5333 225.201 36.1667 225.641 36.98C226.081 37.78 226.301 38.7 226.301 39.74L226.281 40.18ZM221.201 35.62C220.187 35.62 219.334 35.9467 218.641 36.6C217.961 37.24 217.574 38.08 217.481 39.12H224.941C224.847 38.08 224.454 37.24 223.761 36.6C223.081 35.9467 222.227 35.62 221.201 35.62ZM234.551 34.4C235.871 34.4 236.918 34.7867 237.691 35.56C238.478 36.32 238.871 37.4333 238.871 38.9V45H237.451V39.04C237.451 37.9467 237.178 37.1133 236.631 36.54C236.084 35.9667 235.304 35.68 234.291 35.68C233.158 35.68 232.258 36.02 231.591 36.7C230.938 37.3667 230.611 38.2933 230.611 39.48V45H229.191V34.48H230.551V36.42C230.938 35.78 231.471 35.2867 232.151 34.94C232.844 34.58 233.644 34.4 234.551 34.4ZM247.125 45.1C246.085 45.1 245.152 44.8733 244.325 44.42C243.512 43.9667 242.872 43.3333 242.405 42.52C241.938 41.6933 241.705 40.7667 241.705 39.74C241.705 38.7133 241.938 37.7933 242.405 36.98C242.872 36.1667 243.512 35.5333 244.325 35.08C245.152 34.6267 246.085 34.4 247.125 34.4C248.032 34.4 248.838 34.58 249.545 34.94C250.265 35.2867 250.832 35.8 251.245 36.48L250.185 37.2C249.838 36.68 249.398 36.2933 248.865 36.04C248.332 35.7733 247.752 35.64 247.125 35.64C246.365 35.64 245.678 35.8133 245.065 36.16C244.465 36.4933 243.992 36.9733 243.645 37.6C243.312 38.2267 243.145 38.94 243.145 39.74C243.145 40.5533 243.312 41.2733 243.645 41.9C243.992 42.5133 244.465 42.9933 245.065 43.34C245.678 43.6733 246.365 43.84 247.125 43.84C247.752 43.84 248.332 43.7133 248.865 43.46C249.398 43.2067 249.838 42.82 250.185 42.3L251.245 43.02C250.832 43.7 250.265 44.22 249.545 44.58C248.825 44.9267 248.018 45.1 247.125 45.1ZM263.019 40.18H254.219C254.299 41.2733 254.719 42.16 255.479 42.84C256.239 43.5067 257.199 43.84 258.359 43.84C259.012 43.84 259.612 43.7267 260.159 43.5C260.706 43.26 261.179 42.9133 261.579 42.46L262.379 43.38C261.912 43.94 261.326 44.3667 260.619 44.66C259.926 44.9533 259.159 45.1 258.319 45.1C257.239 45.1 256.279 44.8733 255.439 44.42C254.612 43.9533 253.966 43.3133 253.499 42.5C253.032 41.6867 252.799 40.7667 252.799 39.74C252.799 38.7133 253.019 37.7933 253.459 36.98C253.912 36.1667 254.526 35.5333 255.299 35.08C256.086 34.6267 256.966 34.4 257.939 34.4C258.912 34.4 259.786 34.6267 260.559 35.08C261.332 35.5333 261.939 36.1667 262.379 36.98C262.819 37.78 263.039 38.7 263.039 39.74L263.019 40.18ZM257.939 35.62C256.926 35.62 256.072 35.9467 255.379 36.6C254.699 37.24 254.312 38.08 254.219 39.12H261.679C261.586 38.08 261.192 37.24 260.499 36.6C259.819 35.9467 258.966 35.62 257.939 35.62ZM273.984 45.1C273.13 45.1 272.31 44.98 271.524 44.74C270.75 44.4867 270.144 44.1733 269.704 43.8L270.344 42.68C270.784 43.0267 271.337 43.3133 272.004 43.54C272.67 43.7533 273.364 43.86 274.084 43.86C275.044 43.86 275.75 43.7133 276.204 43.42C276.67 43.1133 276.904 42.6867 276.904 42.14C276.904 41.7533 276.777 41.4533 276.524 41.24C276.27 41.0133 275.95 40.8467 275.564 40.74C275.177 40.62 274.664 40.5067 274.024 40.4C273.17 40.24 272.484 40.08 271.964 39.92C271.444 39.7467 270.997 39.46 270.624 39.06C270.264 38.66 270.084 38.1067 270.084 37.4C270.084 36.52 270.45 35.8 271.184 35.24C271.917 34.68 272.937 34.4 274.244 34.4C274.924 34.4 275.604 34.4933 276.284 34.68C276.964 34.8533 277.524 35.0867 277.964 35.38L277.344 36.52C276.477 35.92 275.444 35.62 274.244 35.62C273.337 35.62 272.65 35.78 272.184 36.1C271.73 36.42 271.504 36.84 271.504 37.36C271.504 37.76 271.63 38.08 271.884 38.32C272.15 38.56 272.477 38.74 272.864 38.86C273.25 38.9667 273.784 39.08 274.464 39.2C275.304 39.36 275.977 39.52 276.484 39.68C276.99 39.84 277.424 40.1133 277.784 40.5C278.144 40.8867 278.324 41.42 278.324 42.1C278.324 43.02 277.937 43.7533 277.164 44.3C276.404 44.8333 275.344 45.1 273.984 45.1ZM280.949 34.48H282.369V45H280.949V34.48ZM281.669 32.18C281.375 32.18 281.129 32.08 280.929 31.88C280.729 31.68 280.629 31.44 280.629 31.16C280.629 30.8933 280.729 30.66 280.929 30.46C281.129 30.26 281.375 30.16 281.669 30.16C281.962 30.16 282.209 30.26 282.409 30.46C282.609 30.6467 282.709 30.8733 282.709 31.14C282.709 31.4333 282.609 31.68 282.409 31.88C282.209 32.08 281.962 32.18 281.669 32.18ZM299.44 34.4C300.76 34.4 301.793 34.78 302.54 35.54C303.3 36.3 303.68 37.42 303.68 38.9V45H302.26V39.04C302.26 37.9467 301.993 37.1133 301.46 36.54C300.94 35.9667 300.2 35.68 299.24 35.68C298.147 35.68 297.287 36.02 296.66 36.7C296.033 37.3667 295.72 38.2933 295.72 39.48V45H294.3V39.04C294.3 37.9467 294.033 37.1133 293.5 36.54C292.98 35.9667 292.233 35.68 291.26 35.68C290.18 35.68 289.32 36.02 288.68 36.7C288.053 37.3667 287.74 38.2933 287.74 39.48V45H286.32V34.48H287.68V36.4C288.053 35.76 288.573 35.2667 289.24 34.92C289.907 34.5733 290.673 34.4 291.54 34.4C292.42 34.4 293.18 34.5867 293.82 34.96C294.473 35.3333 294.96 35.8867 295.28 36.62C295.667 35.9267 296.22 35.3867 296.94 35C297.673 34.6 298.507 34.4 299.44 34.4ZM312.951 34.4C313.937 34.4 314.831 34.6267 315.631 35.08C316.431 35.52 317.057 36.1467 317.511 36.96C317.964 37.7733 318.191 38.7 318.191 39.74C318.191 40.7933 317.964 41.7267 317.511 42.54C317.057 43.3533 316.431 43.9867 315.631 44.44C314.844 44.88 313.951 45.1 312.951 45.1C312.097 45.1 311.324 44.9267 310.631 44.58C309.951 44.22 309.391 43.7 308.951 43.02V48.88H307.531V34.48H308.891V36.56C309.317 35.8667 309.877 35.3333 310.571 34.96C311.277 34.5867 312.071 34.4 312.951 34.4ZM312.851 43.84C313.584 43.84 314.251 43.6733 314.851 43.34C315.451 42.9933 315.917 42.5067 316.251 41.88C316.597 41.2533 316.771 40.54 316.771 39.74C316.771 38.94 316.597 38.2333 316.251 37.62C315.917 36.9933 315.451 36.5067 314.851 36.16C314.251 35.8133 313.584 35.64 312.851 35.64C312.104 35.64 311.431 35.8133 310.831 36.16C310.244 36.5067 309.777 36.9933 309.431 37.62C309.097 38.2333 308.931 38.94 308.931 39.74C308.931 40.54 309.097 41.2533 309.431 41.88C309.777 42.5067 310.244 42.9933 310.831 43.34C311.431 43.6733 312.104 43.84 312.851 43.84ZM321.085 30.16H322.505V45H321.085V30.16ZM335.617 40.18H326.817C326.897 41.2733 327.317 42.16 328.077 42.84C328.837 43.5067 329.797 43.84 330.957 43.84C331.61 43.84 332.21 43.7267 332.757 43.5C333.303 43.26 333.777 42.9133 334.177 42.46L334.977 43.38C334.51 43.94 333.923 44.3667 333.217 44.66C332.523 44.9533 331.757 45.1 330.917 45.1C329.837 45.1 328.877 44.8733 328.037 44.42C327.21 43.9533 326.563 43.3133 326.097 42.5C325.63 41.6867 325.397 40.7667 325.397 39.74C325.397 38.7133 325.617 37.7933 326.057 36.98C326.51 36.1667 327.123 35.5333 327.897 35.08C328.683 34.6267 329.563 34.4 330.537 34.4C331.51 34.4 332.383 34.6267 333.157 35.08C333.93 35.5333 334.537 36.1667 334.977 36.98C335.417 37.78 335.637 38.7 335.637 39.74L335.617 40.18ZM330.537 35.62C329.523 35.62 328.67 35.9467 327.977 36.6C327.297 37.24 326.91 38.08 326.817 39.12H334.277C334.183 38.08 333.79 37.24 333.097 36.6C332.417 35.9467 331.563 35.62 330.537 35.62ZM347.441 34.4C348.815 34.4 349.868 34.7467 350.601 35.44C351.335 36.12 351.701 37.1333 351.701 38.48V45H350.341V43.36C350.021 43.9067 349.548 44.3333 348.921 44.64C348.308 44.9467 347.575 45.1 346.721 45.1C345.548 45.1 344.615 44.82 343.921 44.26C343.228 43.7 342.881 42.96 342.881 42.04C342.881 41.1467 343.201 40.4267 343.841 39.88C344.495 39.3333 345.528 39.06 346.941 39.06H350.281V38.42C350.281 37.5133 350.028 36.8267 349.521 36.36C349.015 35.88 348.275 35.64 347.301 35.64C346.635 35.64 345.995 35.7533 345.381 35.98C344.768 36.1933 344.241 36.4933 343.801 36.88L343.161 35.82C343.695 35.3667 344.335 35.02 345.081 34.78C345.828 34.5267 346.615 34.4 347.441 34.4ZM346.941 43.98C347.741 43.98 348.428 43.8 349.001 43.44C349.575 43.0667 350.001 42.5333 350.281 41.84V40.12H346.981C345.181 40.12 344.281 40.7467 344.281 42C344.281 42.6133 344.515 43.1 344.981 43.46C345.448 43.8067 346.101 43.98 346.941 43.98ZM360.918 34.4C362.238 34.4 363.285 34.7867 364.058 35.56C364.845 36.32 365.238 37.4333 365.238 38.9V45H363.818V39.04C363.818 37.9467 363.545 37.1133 362.998 36.54C362.451 35.9667 361.671 35.68 360.658 35.68C359.525 35.68 358.625 36.02 357.958 36.7C357.305 37.3667 356.978 38.2933 356.978 39.48V45H355.558V34.48H356.918V36.42C357.305 35.78 357.838 35.2867 358.518 34.94C359.211 34.58 360.011 34.4 360.918 34.4ZM378.732 30.16V45H377.372V42.92C376.946 43.6267 376.379 44.1667 375.672 44.54C374.979 44.9133 374.192 45.1 373.312 45.1C372.326 45.1 371.432 44.8733 370.632 44.42C369.832 43.9667 369.206 43.3333 368.752 42.52C368.299 41.7067 368.072 40.78 368.072 39.74C368.072 38.7 368.299 37.7733 368.752 36.96C369.206 36.1467 369.832 35.52 370.632 35.08C371.432 34.6267 372.326 34.4 373.312 34.4C374.166 34.4 374.932 34.58 375.612 34.94C376.306 35.2867 376.872 35.8 377.312 36.48V30.16H378.732ZM373.432 43.84C374.166 43.84 374.826 43.6733 375.412 43.34C376.012 42.9933 376.479 42.5067 376.812 41.88C377.159 41.2533 377.332 40.54 377.332 39.74C377.332 38.94 377.159 38.2267 376.812 37.6C376.479 36.9733 376.012 36.4933 375.412 36.16C374.826 35.8133 374.166 35.64 373.432 35.64C372.686 35.64 372.012 35.8133 371.412 36.16C370.826 36.4933 370.359 36.9733 370.012 37.6C369.679 38.2267 369.512 38.94 369.512 39.74C369.512 40.54 369.679 41.2533 370.012 41.88C370.359 42.5067 370.826 42.9933 371.412 43.34C372.012 43.6733 372.686 43.84 373.432 43.84ZM133.105 75.1C132.251 75.1 131.431 74.98 130.645 74.74C129.871 74.4867 129.265 74.1733 128.825 73.8L129.465 72.68C129.905 73.0267 130.458 73.3133 131.125 73.54C131.791 73.7533 132.485 73.86 133.205 73.86C134.165 73.86 134.871 73.7133 135.325 73.42C135.791 73.1133 136.025 72.6867 136.025 72.14C136.025 71.7533 135.898 71.4533 135.645 71.24C135.391 71.0133 135.071 70.8467 134.685 70.74C134.298 70.62 133.785 70.5067 133.145 70.4C132.291 70.24 131.605 70.08 131.085 69.92C130.565 69.7467 130.118 69.46 129.745 69.06C129.385 68.66 129.205 68.1067 129.205 67.4C129.205 66.52 129.571 65.8 130.305 65.24C131.038 64.68 132.058 64.4 133.365 64.4C134.045 64.4 134.725 64.4933 135.405 64.68C136.085 64.8533 136.645 65.0867 137.085 65.38L136.465 66.52C135.598 65.92 134.565 65.62 133.365 65.62C132.458 65.62 131.771 65.78 131.305 66.1C130.851 66.42 130.625 66.84 130.625 67.36C130.625 67.76 130.751 68.08 131.005 68.32C131.271 68.56 131.598 68.74 131.985 68.86C132.371 68.9667 132.905 69.08 133.585 69.2C134.425 69.36 135.098 69.52 135.605 69.68C136.111 69.84 136.545 70.1133 136.905 70.5C137.265 70.8867 137.445 71.42 137.445 72.1C137.445 73.02 137.058 73.7533 136.285 74.3C135.525 74.8333 134.465 75.1 133.105 75.1ZM145.61 74.36C145.343 74.6 145.01 74.7867 144.61 74.92C144.223 75.04 143.817 75.1 143.39 75.1C142.403 75.1 141.643 74.8333 141.11 74.3C140.577 73.7667 140.31 73.0133 140.31 72.04V65.68H138.43V64.48H140.31V62.18H141.73V64.48H144.93V65.68H141.73V71.96C141.73 72.5867 141.883 73.0667 142.19 73.4C142.51 73.72 142.963 73.88 143.55 73.88C143.843 73.88 144.123 73.8333 144.39 73.74C144.67 73.6467 144.91 73.5133 145.11 73.34L145.61 74.36ZM149.555 66.54C149.888 65.8333 150.382 65.3 151.035 64.94C151.702 64.58 152.522 64.4 153.495 64.4V65.78L153.155 65.76C152.048 65.76 151.182 66.1 150.555 66.78C149.928 67.46 149.615 68.4133 149.615 69.64V75H148.195V64.48H149.555V66.54ZM159.726 64.4C161.1 64.4 162.153 64.7467 162.886 65.44C163.62 66.12 163.986 67.1333 163.986 68.48V75H162.626V73.36C162.306 73.9067 161.833 74.3333 161.206 74.64C160.593 74.9467 159.86 75.1 159.006 75.1C157.833 75.1 156.9 74.82 156.206 74.26C155.513 73.7 155.166 72.96 155.166 72.04C155.166 71.1467 155.486 70.4267 156.126 69.88C156.78 69.3333 157.813 69.06 159.226 69.06H162.566V68.42C162.566 67.5133 162.313 66.8267 161.806 66.36C161.3 65.88 160.56 65.64 159.586 65.64C158.92 65.64 158.28 65.7533 157.666 65.98C157.053 66.1933 156.526 66.4933 156.086 66.88L155.446 65.82C155.98 65.3667 156.62 65.02 157.366 64.78C158.113 64.5267 158.9 64.4 159.726 64.4ZM159.226 73.98C160.026 73.98 160.713 73.8 161.286 73.44C161.86 73.0667 162.286 72.5333 162.566 71.84V70.12H159.266C157.466 70.12 156.566 70.7467 156.566 72C156.566 72.6133 156.8 73.1 157.266 73.46C157.733 73.8067 158.386 73.98 159.226 73.98ZM167.843 64.48H169.263V75H167.843V64.48ZM168.563 62.18C168.27 62.18 168.023 62.08 167.823 61.88C167.623 61.68 167.523 61.44 167.523 61.16C167.523 60.8933 167.623 60.66 167.823 60.46C168.023 60.26 168.27 60.16 168.563 60.16C168.857 60.16 169.103 60.26 169.303 60.46C169.503 60.6467 169.603 60.8733 169.603 61.14C169.603 61.4333 169.503 61.68 169.303 61.88C169.103 62.08 168.857 62.18 168.563 62.18ZM182.954 64.48V73.72C182.954 75.5067 182.514 76.8267 181.634 77.68C180.768 78.5467 179.454 78.98 177.694 78.98C176.721 78.98 175.794 78.8333 174.914 78.54C174.048 78.26 173.341 77.8667 172.794 77.36L173.514 76.28C174.021 76.7333 174.634 77.0867 175.354 77.34C176.088 77.5933 176.854 77.72 177.654 77.72C178.988 77.72 179.968 77.4067 180.594 76.78C181.221 76.1667 181.534 75.2067 181.534 73.9V72.56C181.094 73.2267 180.514 73.7333 179.794 74.08C179.088 74.4267 178.301 74.6 177.434 74.6C176.448 74.6 175.548 74.3867 174.734 73.96C173.934 73.52 173.301 72.9133 172.834 72.14C172.381 71.3533 172.154 70.4667 172.154 69.48C172.154 68.4933 172.381 67.6133 172.834 66.84C173.301 66.0667 173.934 65.4667 174.734 65.04C175.534 64.6133 176.434 64.4 177.434 64.4C178.328 64.4 179.134 64.58 179.854 64.94C180.574 65.3 181.154 65.82 181.594 66.5V64.48H182.954ZM177.574 73.34C178.334 73.34 179.021 73.18 179.634 72.86C180.248 72.5267 180.721 72.0667 181.054 71.48C181.401 70.8933 181.574 70.2267 181.574 69.48C181.574 68.7333 181.401 68.0733 181.054 67.5C180.721 66.9133 180.248 66.46 179.634 66.14C179.034 65.8067 178.348 65.64 177.574 65.64C176.814 65.64 176.128 65.8 175.514 66.12C174.914 66.44 174.441 66.8933 174.094 67.48C173.761 68.0667 173.594 68.7333 173.594 69.48C173.594 70.2267 173.761 70.8933 174.094 71.48C174.441 72.0667 174.914 72.5267 175.514 72.86C176.128 73.18 176.814 73.34 177.574 73.34ZM192.285 64.4C193.605 64.4 194.652 64.7867 195.425 65.56C196.212 66.32 196.605 67.4333 196.605 68.9V75H195.185V69.04C195.185 67.9467 194.912 67.1133 194.365 66.54C193.819 65.9667 193.039 65.68 192.025 65.68C190.892 65.68 189.992 66.02 189.325 66.7C188.672 67.3667 188.345 68.2933 188.345 69.48V75H186.925V60.16H188.345V66.32C188.732 65.7067 189.265 65.2333 189.945 64.9C190.625 64.5667 191.405 64.4 192.285 64.4ZM206 74.36C205.734 74.6 205.4 74.7867 205 74.92C204.614 75.04 204.207 75.1 203.78 75.1C202.794 75.1 202.034 74.8333 201.5 74.3C200.967 73.7667 200.7 73.0133 200.7 72.04V65.68H198.82V64.48H200.7V62.18H202.12V64.48H205.32V65.68H202.12V71.96C202.12 72.5867 202.274 73.0667 202.58 73.4C202.9 73.72 203.354 73.88 203.94 73.88C204.234 73.88 204.514 73.8333 204.78 73.74C205.06 73.6467 205.3 73.5133 205.5 73.34L206 74.36ZM212.065 61.26C211.452 61.26 210.985 61.4267 210.665 61.76C210.359 62.0933 210.205 62.5867 210.205 63.24V64.48H213.445V65.68H210.245V75H208.825V65.68H206.945V64.48H208.825V63.18C208.825 62.22 209.099 61.46 209.645 60.9C210.205 60.34 210.992 60.06 212.005 60.06C212.405 60.06 212.792 60.12 213.165 60.24C213.539 60.3467 213.852 60.5067 214.105 60.72L213.625 61.78C213.212 61.4333 212.692 61.26 212.065 61.26ZM219.487 75.1C218.474 75.1 217.56 74.8733 216.747 74.42C215.934 73.9533 215.294 73.3133 214.827 72.5C214.36 71.6867 214.127 70.7667 214.127 69.74C214.127 68.7133 214.36 67.7933 214.827 66.98C215.294 66.1667 215.934 65.5333 216.747 65.08C217.56 64.6267 218.474 64.4 219.487 64.4C220.5 64.4 221.414 64.6267 222.227 65.08C223.04 65.5333 223.674 66.1667 224.127 66.98C224.594 67.7933 224.827 68.7133 224.827 69.74C224.827 70.7667 224.594 71.6867 224.127 72.5C223.674 73.3133 223.04 73.9533 222.227 74.42C221.414 74.8733 220.5 75.1 219.487 75.1ZM219.487 73.84C220.234 73.84 220.9 73.6733 221.487 73.34C222.087 72.9933 222.554 72.5067 222.887 71.88C223.22 71.2533 223.387 70.54 223.387 69.74C223.387 68.94 223.22 68.2267 222.887 67.6C222.554 66.9733 222.087 66.4933 221.487 66.16C220.9 65.8133 220.234 65.64 219.487 65.64C218.74 65.64 218.067 65.8133 217.467 66.16C216.88 66.4933 216.414 66.9733 216.067 67.6C215.734 68.2267 215.567 68.94 215.567 69.74C215.567 70.54 215.734 71.2533 216.067 71.88C216.414 72.5067 216.88 72.9933 217.467 73.34C218.067 73.6733 218.74 73.84 219.487 73.84ZM229.086 66.54C229.419 65.8333 229.913 65.3 230.566 64.94C231.233 64.58 232.053 64.4 233.026 64.4V65.78L232.686 65.76C231.579 65.76 230.713 66.1 230.086 66.78C229.459 67.46 229.146 68.4133 229.146 69.64V75H227.726V64.48H229.086V66.54ZM251.486 64.48L247.506 75H246.166L242.846 66.38L239.526 75H238.186L234.226 64.48H235.586L238.886 73.42L242.266 64.48H243.486L246.846 73.42L250.186 64.48H251.486ZM256.992 64.4C258.365 64.4 259.419 64.7467 260.152 65.44C260.885 66.12 261.252 67.1333 261.252 68.48V75H259.892V73.36C259.572 73.9067 259.099 74.3333 258.472 74.64C257.859 74.9467 257.125 75.1 256.272 75.1C255.099 75.1 254.165 74.82 253.472 74.26C252.779 73.7 252.432 72.96 252.432 72.04C252.432 71.1467 252.752 70.4267 253.392 69.88C254.045 69.3333 255.079 69.06 256.492 69.06H259.832V68.42C259.832 67.5133 259.579 66.8267 259.072 66.36C258.565 65.88 257.825 65.64 256.852 65.64C256.185 65.64 255.545 65.7533 254.932 65.98C254.319 66.1933 253.792 66.4933 253.352 66.88L252.712 65.82C253.245 65.3667 253.885 65.02 254.632 64.78C255.379 64.5267 256.165 64.4 256.992 64.4ZM256.492 73.98C257.292 73.98 257.979 73.8 258.552 73.44C259.125 73.0667 259.552 72.5333 259.832 71.84V70.12H256.532C254.732 70.12 253.832 70.7467 253.832 72C253.832 72.6133 254.065 73.1 254.532 73.46C254.999 73.8067 255.652 73.98 256.492 73.98ZM266.469 66.54C266.802 65.8333 267.296 65.3 267.949 64.94C268.616 64.58 269.436 64.4 270.409 64.4V65.78L270.069 65.76C268.962 65.76 268.096 66.1 267.469 66.78C266.842 67.46 266.529 68.4133 266.529 69.64V75H265.109V64.48H266.469V66.54ZM282.482 60.16V75H281.122V72.92C280.696 73.6267 280.129 74.1667 279.422 74.54C278.729 74.9133 277.942 75.1 277.062 75.1C276.076 75.1 275.182 74.8733 274.382 74.42C273.582 73.9667 272.956 73.3333 272.502 72.52C272.049 71.7067 271.822 70.78 271.822 69.74C271.822 68.7 272.049 67.7733 272.502 66.96C272.956 66.1467 273.582 65.52 274.382 65.08C275.182 64.6267 276.076 64.4 277.062 64.4C277.916 64.4 278.682 64.58 279.362 64.94C280.056 65.2867 280.622 65.8 281.062 66.48V60.16H282.482ZM277.182 73.84C277.916 73.84 278.576 73.6733 279.162 73.34C279.762 72.9933 280.229 72.5067 280.562 71.88C280.909 71.2533 281.082 70.54 281.082 69.74C281.082 68.94 280.909 68.2267 280.562 67.6C280.229 66.9733 279.762 66.4933 279.162 66.16C278.576 65.8133 277.916 65.64 277.182 65.64C276.436 65.64 275.762 65.8133 275.162 66.16C274.576 66.4933 274.109 66.9733 273.762 67.6C273.429 68.2267 273.262 68.94 273.262 69.74C273.262 70.54 273.429 71.2533 273.762 71.88C274.109 72.5067 274.576 72.9933 275.162 73.34C275.762 73.6733 276.436 73.84 277.182 73.84ZM286.577 75.1C286.284 75.1 286.03 74.9933 285.817 74.78C285.617 74.5667 285.517 74.3067 285.517 74C285.517 73.6933 285.617 73.44 285.817 73.24C286.03 73.0267 286.284 72.92 286.577 72.92C286.87 72.92 287.124 73.0267 287.337 73.24C287.55 73.44 287.657 73.6933 287.657 74C287.657 74.3067 287.55 74.5667 287.337 74.78C287.124 74.9933 286.87 75.1 286.577 75.1Z" fill="black"/>
</svg>
