<svg width="46" height="42" viewBox="0 0 46 42" fill="none" xmlns="http://www.w3.org/2000/svg">
<g filter="url(#filter0_d)">
<path d="M41.468 7.09863L35.3833 1.01391C35.1132 0.743132 34.7924 0.528294 34.4392 0.381709C34.086 0.235123 33.7074 0.159668 33.3249 0.159668C32.9425 0.159668 32.5639 0.235123 32.2107 0.381709C31.8575 0.528294 31.5367 0.743132 31.2666 1.01391L6.51245 25.9125L4.47217 34.5972C4.39578 34.9719 4.39406 35.358 4.46712 35.7333C4.54017 36.1086 4.68655 36.4659 4.89788 36.7846C5.10921 37.1032 5.38133 37.3771 5.69867 37.5904C6.016 37.8038 6.3723 37.9524 6.74717 38.0278C6.93327 38.0465 7.12079 38.0465 7.30689 38.0278C7.52812 38.0639 7.75372 38.0639 7.97495 38.0278L16.7319 36.0959L41.468 11.3056C41.7382 11.0371 41.9527 10.7178 42.099 10.3661C42.2454 10.0144 42.3207 9.63721 42.3207 9.25627C42.3207 8.87533 42.2454 8.49816 42.099 8.14645C41.9527 7.79475 41.7382 7.47546 41.468 7.20696V7.09863ZM14.8902 32.8097L8.28189 34.2722L9.88884 27.7181L28.4499 8.95836L33.5416 14.05L14.8902 32.8097ZM35.5819 12.0097L30.4902 6.91808L33.3611 4.08335L38.4888 9.21113L35.5819 12.0097Z" fill="#BF2424"/>
</g>
<defs>
<filter id="filter0_d" x="0.413574" y="0.159668" width="45.9071" height="45.8952" filterUnits="userSpaceOnUse" color-interpolation-filters="sRGB">
<feFlood flood-opacity="0" result="BackgroundImageFix"/>
<feColorMatrix in="SourceAlpha" type="matrix" values="0 0 0 0 0 0 0 0 0 0 0 0 0 0 0 0 0 0 127 0"/>
<feOffset dy="4"/>
<feGaussianBlur stdDeviation="2"/>
<feColorMatrix type="matrix" values="0 0 0 0 0 0 0 0 0 0 0 0 0 0 0 0 0 0 0.25 0"/>
<feBlend mode="normal" in2="BackgroundImageFix" result="effect1_dropShadow"/>
<feBlend mode="normal" in="SourceGraphic" in2="effect1_dropShadow" result="shape"/>
</filter>
</defs>
</svg>
