<svg width="52" height="49" viewBox="0 0 52 49" fill="none" xmlns="http://www.w3.org/2000/svg">
<path d="M50.6625 3.51042C50.1235 3.037 49.4187 2.79677 48.7027 2.84247C47.9868 2.88817 47.3182 3.21606 46.8438 3.75417L41.7792 9.57709L40.0729 7.65417C39.5952 7.11545 38.9231 6.78855 38.2044 6.74537C37.4858 6.7022 36.7793 6.9463 36.2406 7.42396C35.7019 7.90163 35.375 8.57374 35.3318 9.29243C35.2887 10.0111 35.5327 10.7175 36.0104 11.2563L39.775 15.4813C40.0313 15.7652 40.3448 15.9917 40.6949 16.1457C41.045 16.2998 41.4238 16.3779 41.8062 16.375C42.1862 16.3707 42.561 16.2865 42.9063 16.1278C43.2516 15.9692 43.5596 15.7397 43.8104 15.4542L50.8792 7.32917C51.3559 6.79361 51.6008 6.09086 51.5602 5.37501C51.5196 4.65916 51.1967 3.98862 50.6625 3.51042ZM19.0833 21.7917C21.226 21.7917 23.3205 21.1563 25.102 19.9659C26.8835 18.7755 28.2721 17.0836 29.092 15.1041C29.912 13.1245 30.1265 10.9463 29.7085 8.84486C29.2905 6.7434 28.2587 4.81308 26.7437 3.29801C25.2286 1.78295 23.2983 0.751171 21.1968 0.333164C19.0954 -0.0848422 16.9171 0.129694 14.9376 0.949643C12.9581 1.76959 11.2661 3.15813 10.0757 4.93966C8.88536 6.72119 8.25 8.81571 8.25 10.9583C8.25 13.8315 9.39137 16.587 11.423 18.6187C13.4547 20.6503 16.2102 21.7917 19.0833 21.7917ZM19.0833 5.54167C20.1546 5.54167 21.2019 5.85935 22.0927 6.45454C22.9834 7.04974 23.6777 7.8957 24.0877 8.88547C24.4977 9.87523 24.6049 10.9643 24.3959 12.0151C24.1869 13.0658 23.671 14.031 22.9135 14.7885C22.156 15.546 21.1908 16.0619 20.1401 16.2709C19.0893 16.4799 18.0002 16.3727 17.0105 15.9627C16.0207 15.5527 15.1747 14.8584 14.5795 13.9677C13.9843 13.0769 13.6667 12.0297 13.6667 10.9583C13.6667 9.52175 14.2374 8.144 15.2532 7.12818C16.269 6.11235 17.6467 5.54167 19.0833 5.54167ZM19.0833 27.2083C14.0553 27.2083 9.23314 29.2057 5.67777 32.7611C2.12239 36.3165 0.125 41.1386 0.125 46.1667C0.125 46.885 0.410341 47.5738 0.918252 48.0818C1.42616 48.5897 2.11504 48.875 2.83333 48.875C3.55163 48.875 4.2405 48.5897 4.74841 48.0818C5.25632 47.5738 5.54167 46.885 5.54167 46.1667C5.54167 42.5752 6.96837 39.1308 9.50793 36.5913C12.0475 34.0517 15.4919 32.625 19.0833 32.625C22.6748 32.625 26.1192 34.0517 28.6587 36.5913C31.1983 39.1308 32.625 42.5752 32.625 46.1667C32.625 46.885 32.9103 47.5738 33.4183 48.0818C33.9262 48.5897 34.615 48.875 35.3333 48.875C36.0516 48.875 36.7405 48.5897 37.2484 48.0818C37.7563 47.5738 38.0417 46.885 38.0417 46.1667C38.0417 41.1386 36.0443 36.3165 32.4889 32.7611C28.9335 29.2057 24.1114 27.2083 19.0833 27.2083Z" fill="#BF2424"/>
</svg>
