<svg width="349" height="37" viewBox="0 0 349 37" fill="none" xmlns="http://www.w3.org/2000/svg">
<path d="M11.6869 36.6C9.32025 36.6 7.13691 36.1667 5.13691 35.3C3.17025 34.4 1.55358 33.1333 0.286914 31.5L4.78691 26.1C6.68691 28.6667 8.85358 29.95 11.2869 29.95C14.5869 29.95 16.2369 28.0167 16.2369 24.15V7.5H3.93691V0.999998H24.2869V23.7C24.2869 28 23.2202 31.2333 21.0869 33.4C18.9536 35.5333 15.8202 36.6 11.6869 36.6ZM49.2377 36.6C45.6044 36.6 42.321 35.8167 39.3877 34.25C36.4877 32.6833 34.2044 30.5333 32.5377 27.8C30.9044 25.0333 30.0877 21.9333 30.0877 18.5C30.0877 15.0667 30.9044 11.9833 32.5377 9.25C34.2044 6.48333 36.4877 4.31667 39.3877 2.75C42.321 1.18333 45.6044 0.399999 49.2377 0.399999C52.871 0.399999 56.1377 1.18333 59.0377 2.75C61.9377 4.31667 64.221 6.48333 65.8877 9.25C67.5544 11.9833 68.3877 15.0667 68.3877 18.5C68.3877 21.9333 67.5544 25.0333 65.8877 27.8C64.221 30.5333 61.9377 32.6833 59.0377 34.25C56.1377 35.8167 52.871 36.6 49.2377 36.6ZM49.2377 29.7C51.3044 29.7 53.171 29.2333 54.8377 28.3C56.5044 27.3333 57.8044 26 58.7377 24.3C59.7044 22.6 60.1877 20.6667 60.1877 18.5C60.1877 16.3333 59.7044 14.4 58.7377 12.7C57.8044 11 56.5044 9.68333 54.8377 8.75C53.171 7.78333 51.3044 7.3 49.2377 7.3C47.171 7.3 45.3044 7.78333 43.6377 8.75C41.971 9.68333 40.6544 11 39.6877 12.7C38.7544 14.4 38.2877 16.3333 38.2877 18.5C38.2877 20.6667 38.7544 22.6 39.6877 24.3C40.6544 26 41.971 27.3333 43.6377 28.3C45.3044 29.2333 47.171 29.7 49.2377 29.7ZM74.4752 0.999998H82.5752V36H74.4752V0.999998ZM122.981 0.999998V36H116.331L98.8814 14.75V36H90.8814V0.999998H97.5814L114.981 22.25V0.999998H122.981ZM168.472 28.5H152.222L149.122 36H140.822L156.422 0.999998H164.422L180.072 36H171.572L168.472 28.5ZM165.922 22.35L160.372 8.95L154.822 22.35H165.922ZM215.554 36L215.504 15L205.204 32.3H201.554L191.304 15.45V36H183.704V0.999998H190.404L203.504 22.75L216.404 0.999998H223.054L223.154 36H215.554ZM253.758 36L247.008 26.25H246.608H239.558V36H231.458V0.999998H246.608C249.708 0.999998 252.391 1.51666 254.658 2.55C256.958 3.58333 258.724 5.05 259.958 6.95C261.191 8.85 261.808 11.1 261.808 13.7C261.808 16.3 261.174 18.55 259.908 20.45C258.674 22.3167 256.908 23.75 254.608 24.75L262.458 36H253.758ZM253.608 13.7C253.608 11.7333 252.974 10.2333 251.708 9.2C250.441 8.13333 248.591 7.6 246.158 7.6H239.558V19.8H246.158C248.591 19.8 250.441 19.2667 251.708 18.2C252.974 17.1333 253.608 15.6333 253.608 13.7ZM268.225 0.999998H276.325V36H268.225V0.999998ZM291.881 7.6H280.681V0.999998H311.181V7.6H299.981V36H291.881V7.6ZM336.832 28.5H320.582L317.482 36H309.182L324.782 0.999998H332.782L348.432 36H339.932L336.832 28.5ZM334.282 22.35L328.732 8.95L323.182 22.35H334.282Z" fill="#B30F56"/>
</svg>
